<svg width="218" height="146" viewBox="0 0 218 146" fill="none" xmlns="http://www.w3.org/2000/svg">
<path d="M85.0871 70.947H18.8559C18.6149 70.947 18.4187 70.7509 18.4187 70.5099V67.4786C18.4187 67.2376 18.6149 67.0415 18.8559 67.0415H85.0871C85.3282 67.0415 85.5244 67.2376 85.5244 67.4786V70.5099C85.5244 70.7509 85.3282 70.947 85.0871 70.947Z" fill="#F9BC18"/>
<path d="M48.8632 78.8979H30.3924C30.1514 78.8979 29.9552 78.7018 29.9552 78.4609V75.4295C29.9552 75.1885 30.1514 74.9924 30.3924 74.9924H48.8632C49.1042 74.9924 49.3004 75.1885 49.3004 75.4295V78.4609C49.3004 78.7018 49.1042 78.8979 48.8632 78.8979Z" fill="#F9BC18"/>
<path d="M66.0278 78.8979H51.4979C51.2569 78.8979 51.0607 78.7018 51.0607 78.4609V75.4295C51.0607 75.1885 51.2569 74.9924 51.4979 74.9924H66.0278C66.2689 74.9924 66.4651 75.1885 66.4651 75.4295V78.4609C66.4651 78.7018 66.2689 78.8979 66.0278 78.8979Z" fill="#F9BC18"/>
<path d="M66.5212 63.5674H40.8415C40.6005 63.5674 40.4043 63.3712 40.4043 63.1303V60.0989C40.4043 59.858 40.6005 59.6619 40.8415 59.6619H66.5212C66.7622 59.6619 66.9584 59.858 66.9584 60.0989V63.1303C66.9584 63.3712 66.7622 63.5674 66.5212 63.5674Z" fill="#F9BC18"/>
<path d="M82.4356 63.5674H70.0303C69.7892 63.5674 69.593 63.3712 69.593 63.1303V60.0989C69.593 59.858 69.7892 59.6619 70.0303 59.6619H82.4356C82.6767 59.6619 82.8729 59.858 82.8729 60.0989V63.1303C82.8729 63.3712 82.6767 63.5674 82.4356 63.5674Z" fill="#F9BC18"/>
<path d="M47.3889 55.6106H33.4252C33.1841 55.6106 32.9879 55.4144 32.9879 55.1735V52.1421C32.9879 51.9012 33.1841 51.7051 33.4252 51.7051H47.3833C47.6244 51.7051 47.8206 51.9012 47.8206 52.1421V55.1735C47.8262 55.4144 47.63 55.6106 47.3889 55.6106Z" fill="#F9BC18"/>
<path d="M59.4131 40.4314H42.2204C41.9794 40.4314 41.7832 40.2352 41.7832 39.9943V36.9629C41.7832 36.722 41.9794 36.5259 42.2204 36.5259H59.4131C59.6541 36.5259 59.8503 36.722 59.8503 36.9629V39.9943C59.8503 40.2352 59.6541 40.4314 59.4131 40.4314Z" fill="#F9BC18"/>
<path d="M80.3054 40.4314H63.1128C62.8717 40.4314 62.6755 40.2352 62.6755 39.9943V36.9629C62.6755 36.722 62.8717 36.5259 63.1128 36.5259H80.3054C80.5465 36.5259 80.7427 36.722 80.7427 36.9629V39.9943C80.7427 40.2352 80.5465 40.4314 80.3054 40.4314Z" fill="#F9BC18"/>
<path d="M84.2463 32.6372H54.7997C54.5586 32.6372 54.3624 32.4411 54.3624 32.2001V29.1687C54.3624 28.9278 54.5586 28.7317 54.7997 28.7317H84.2407C84.4818 28.7317 84.678 28.9278 84.678 29.1687V32.2001C84.6836 32.4411 84.4874 32.6372 84.2463 32.6372Z" fill="#F9BC18"/>
<path d="M88.6075 48.018H27.0963C26.8553 48.018 26.6591 47.8219 26.6591 47.581V44.5496C26.6591 44.3087 26.8553 44.1125 27.0963 44.1125H88.6075C88.8485 44.1125 89.0447 44.3087 89.0447 44.5496V47.581C89.0447 47.8275 88.8485 48.018 88.6075 48.018Z" fill="#F9BC18"/>
<path d="M77.1383 55.6106H50.4048C50.1637 55.6106 49.9675 55.4144 49.9675 55.1735V52.1421C49.9675 51.9012 50.1637 51.7051 50.4048 51.7051H77.1383C77.3793 51.7051 77.5755 51.9012 77.5755 52.1421V55.1735C77.5755 55.4144 77.3793 55.6106 77.1383 55.6106Z" fill="#F9BC18"/>
<path d="M65.3943 86.4175H43.3359C43.0949 86.4175 42.8987 86.2213 42.8987 85.9804V82.949C42.8987 82.7081 43.0949 82.512 43.3359 82.512H65.3943C65.6353 82.512 65.8315 82.7081 65.8315 82.949V85.9804C65.8315 86.2213 65.6353 86.4175 65.3943 86.4175Z" fill="#F9BC18"/>
<path d="M130.471 85.7338C131.619 85.7338 132.55 84.778 132.55 83.599C132.55 82.4199 131.619 81.4641 130.471 81.4641C129.322 81.4641 128.391 82.4199 128.391 83.599C128.391 84.778 129.322 85.7338 130.471 85.7338Z" fill="#F9BC18"/>
<path d="M75.961 85.8235C77.1561 85.8235 78.1248 84.8276 78.1248 83.599C78.1248 82.3705 77.1561 81.3745 75.961 81.3745C74.766 81.3745 73.7972 82.3705 73.7972 83.599C73.7972 84.8276 74.766 85.8235 75.961 85.8235Z" fill="#F9BC18"/>
<path d="M173.36 28.037C171.986 27.9698 170.635 27.9922 169.301 28.093C162.176 15.0598 148.594 6.25708 133.016 6.25708C120.997 6.25708 110.167 11.4961 102.571 19.8786C100.632 18.9485 98.4679 18.4274 96.1864 18.4274C88.2711 18.4274 81.791 24.6806 81.1407 32.6429H110.229C111.103 32.6429 111.815 33.3713 111.815 34.2734V72.0003C111.815 72.2973 112.05 72.5438 112.342 72.5438H112.919C113.211 72.5438 113.446 72.3029 113.446 72.0003V44.3257C113.446 43.7374 113.912 43.2611 114.483 43.2611H115.414C115.902 43.2611 116.294 43.6645 116.294 44.1632H130.112C131.317 44.1632 132.461 44.7123 133.229 45.6649L143.128 57.9025C143.128 57.9025 146.223 60.1774 146.223 65.5621C146.223 70.9525 146.223 72.1796 146.223 72.1796C146.223 72.1796 147.596 72.3253 147.596 73.8774V77.8221C147.596 78.3712 147.45 78.9091 147.176 79.3854C146.806 80.0186 146.329 80.9039 146.329 81.2177C146.329 81.722 146.329 82.7362 146.329 82.7362C146.329 82.7362 145.802 83.6047 144.642 83.6047C143.482 83.6047 139.047 83.6047 139.047 83.6047H138.767C138.767 78.8923 135.051 75.0765 130.465 75.0765C125.88 75.0765 122.163 78.8979 122.163 83.6047H84.7452C84.7452 78.7746 80.9333 74.858 76.2357 74.858C72.194 74.858 68.8138 77.7493 67.9449 81.6323C67.9057 81.806 67.9561 81.9909 68.0682 82.131L69.4192 83.7447C69.4192 83.6999 69.4136 83.6551 69.4136 83.6047C69.4136 79.4694 72.8947 76.1691 77.0093 76.6342C80.1485 76.9872 82.6823 79.5983 83.0186 82.8258C83.2989 85.5154 82.0993 87.936 80.1597 89.3424C79.6047 89.7459 78.9377 89.942 78.2594 89.942H73.3152H69.7612H56.8457C55.5788 89.942 54.3287 90.9842 54.1718 92.2785C53.9699 93.9147 55.2088 95.3099 56.7616 95.3099H171.476C190.239 95.3099 205.565 79.2397 204.477 59.7011C203.535 42.6055 189.998 28.8383 173.36 28.037ZM130.942 90.9562C126.614 91.2363 123.043 87.5662 123.318 83.1172C123.542 79.447 126.44 76.4717 130.011 76.2364C134.339 75.9562 137.909 79.6263 137.635 84.0753C137.405 87.7511 134.512 90.7264 130.942 90.9562Z" fill="#F9BC18"/>
<path d="M123.105 63.2312V64.2286C123.105 64.5087 122.886 64.7329 122.612 64.7329H118.161C117.892 64.7329 117.667 64.5087 117.667 64.2286V63.2312C117.667 62.951 117.886 62.7269 118.161 62.7269H122.612C122.886 62.7213 123.105 62.951 123.105 63.2312Z" fill="#F9BC18"/>
<path d="M137.321 57.0058H136.357C135.706 57.0058 135.185 57.5438 135.185 58.2105V60.7152H117.286C116.742 60.7152 116.3 60.2613 116.3 59.701V47.7941C116.3 47.4467 116.574 47.1609 116.916 47.1609H128.839C129.585 47.1609 130.291 47.5027 130.762 48.091L137.539 56.5184C137.696 56.7145 137.562 57.0058 137.321 57.0058Z" fill="#F9BC18"/>
<path d="M144.928 75.0483V78.0405C144.928 78.3094 144.664 78.4999 144.418 78.4047C143.437 78.0349 141.368 76.9926 141.178 74.7513C141.155 74.4712 141.368 74.2302 141.643 74.2302H144.143C144.575 74.2358 144.928 74.6 144.928 75.0483Z" fill="#F9BC18"/>
<path d="M85.0871 70.947H18.8559C18.6149 70.947 18.4187 70.7509 18.4187 70.5099V67.4786C18.4187 67.2376 18.6149 67.0415 18.8559 67.0415H85.0871C85.3282 67.0415 85.5244 67.2376 85.5244 67.4786V70.5099C85.5244 70.7509 85.3282 70.947 85.0871 70.947Z" fill="#F8BC18"/>
<path d="M48.8632 78.8979H30.3924C30.1514 78.8979 29.9552 78.7018 29.9552 78.4609V75.4295C29.9552 75.1885 30.1514 74.9924 30.3924 74.9924H48.8632C49.1042 74.9924 49.3004 75.1885 49.3004 75.4295V78.4609C49.3004 78.7018 49.1042 78.8979 48.8632 78.8979Z" fill="#F8BC18"/>
<path d="M66.0278 78.8979H51.4979C51.2569 78.8979 51.0607 78.7018 51.0607 78.4609V75.4295C51.0607 75.1885 51.2569 74.9924 51.4979 74.9924H66.0278C66.2689 74.9924 66.4651 75.1885 66.4651 75.4295V78.4609C66.4651 78.7018 66.2689 78.8979 66.0278 78.8979Z" fill="#F8BC18"/>
<path d="M66.5212 63.5674H40.8415C40.6005 63.5674 40.4043 63.3712 40.4043 63.1303V60.0989C40.4043 59.858 40.6005 59.6619 40.8415 59.6619H66.5212C66.7622 59.6619 66.9584 59.858 66.9584 60.0989V63.1303C66.9584 63.3712 66.7622 63.5674 66.5212 63.5674Z" fill="#F8BC18"/>
<path d="M82.4356 63.5674H70.0303C69.7892 63.5674 69.593 63.3712 69.593 63.1303V60.0989C69.593 59.858 69.7892 59.6619 70.0303 59.6619H82.4356C82.6767 59.6619 82.8729 59.858 82.8729 60.0989V63.1303C82.8729 63.3712 82.6767 63.5674 82.4356 63.5674Z" fill="#F8BC18"/>
<path d="M47.3889 55.6106H33.4252C33.1841 55.6106 32.9879 55.4144 32.9879 55.1735V52.1421C32.9879 51.9012 33.1841 51.7051 33.4252 51.7051H47.3833C47.6244 51.7051 47.8206 51.9012 47.8206 52.1421V55.1735C47.8262 55.4144 47.63 55.6106 47.3889 55.6106Z" fill="#F8BC18"/>
<path d="M59.4131 40.4314H42.2204C41.9794 40.4314 41.7832 40.2352 41.7832 39.9943V36.9629C41.7832 36.722 41.9794 36.5259 42.2204 36.5259H59.4131C59.6541 36.5259 59.8503 36.722 59.8503 36.9629V39.9943C59.8503 40.2352 59.6541 40.4314 59.4131 40.4314Z" fill="#F8BC18"/>
<path d="M80.3054 40.4314H63.1128C62.8717 40.4314 62.6755 40.2352 62.6755 39.9943V36.9629C62.6755 36.722 62.8717 36.5259 63.1128 36.5259H80.3054C80.5465 36.5259 80.7427 36.722 80.7427 36.9629V39.9943C80.7427 40.2352 80.5465 40.4314 80.3054 40.4314Z" fill="#F8BC18"/>
<path d="M84.2463 32.6372H54.7997C54.5586 32.6372 54.3624 32.4411 54.3624 32.2001V29.1687C54.3624 28.9278 54.5586 28.7317 54.7997 28.7317H84.2407C84.4818 28.7317 84.678 28.9278 84.678 29.1687V32.2001C84.6836 32.4411 84.4874 32.6372 84.2463 32.6372Z" fill="#F8BC18"/>
<path d="M88.6075 48.018H27.0963C26.8553 48.018 26.6591 47.8219 26.6591 47.581V44.5496C26.6591 44.3087 26.8553 44.1125 27.0963 44.1125H88.6075C88.8485 44.1125 89.0447 44.3087 89.0447 44.5496V47.581C89.0447 47.8275 88.8485 48.018 88.6075 48.018Z" fill="#F8BC18"/>
<path d="M77.1383 55.6106H50.4048C50.1637 55.6106 49.9675 55.4144 49.9675 55.1735V52.1421C49.9675 51.9012 50.1637 51.7051 50.4048 51.7051H77.1383C77.3793 51.7051 77.5755 51.9012 77.5755 52.1421V55.1735C77.5755 55.4144 77.3793 55.6106 77.1383 55.6106Z" fill="#F8BC18"/>
<path d="M65.3943 86.4175H43.3359C43.0949 86.4175 42.8987 86.2213 42.8987 85.9804V82.949C42.8987 82.7081 43.0949 82.512 43.3359 82.512H65.3943C65.6353 82.512 65.8315 82.7081 65.8315 82.949V85.9804C65.8315 86.2213 65.6353 86.4175 65.3943 86.4175Z" fill="#F8BC18"/>
<path d="M130.471 85.7338C131.619 85.7338 132.55 84.778 132.55 83.599C132.55 82.4199 131.619 81.4641 130.471 81.4641C129.322 81.4641 128.391 82.4199 128.391 83.599C128.391 84.778 129.322 85.7338 130.471 85.7338Z" fill="#F8BC18"/>
<path d="M75.961 85.8235C77.1561 85.8235 78.1248 84.8276 78.1248 83.599C78.1248 82.3705 77.1561 81.3745 75.961 81.3745C74.766 81.3745 73.7972 82.3705 73.7972 83.599C73.7972 84.8276 74.766 85.8235 75.961 85.8235Z" fill="#F8BC18"/>
<path d="M173.36 28.037C171.986 27.9698 170.635 27.9922 169.301 28.093C162.176 15.0598 148.594 6.25708 133.016 6.25708C120.997 6.25708 110.167 11.4961 102.571 19.8786C100.632 18.9485 98.4679 18.4274 96.1864 18.4274C88.2711 18.4274 81.791 24.6806 81.1407 32.6429H110.229C111.103 32.6429 111.815 33.3713 111.815 34.2734V72.0003C111.815 72.2973 112.05 72.5438 112.342 72.5438H112.919C113.211 72.5438 113.446 72.3029 113.446 72.0003V44.3257C113.446 43.7374 113.912 43.2611 114.483 43.2611H115.414C115.902 43.2611 116.294 43.6645 116.294 44.1632H130.112C131.317 44.1632 132.461 44.7123 133.229 45.6649L143.128 57.9025C143.128 57.9025 146.223 60.1774 146.223 65.5621C146.223 70.9525 146.223 72.1796 146.223 72.1796C146.223 72.1796 147.596 72.3253 147.596 73.8774V77.8221C147.596 78.3712 147.45 78.9091 147.176 79.3854C146.806 80.0186 146.329 80.9039 146.329 81.2177C146.329 81.722 146.329 82.7362 146.329 82.7362C146.329 82.7362 145.802 83.6047 144.642 83.6047C143.482 83.6047 139.047 83.6047 139.047 83.6047H138.767C138.767 78.8923 135.051 75.0765 130.465 75.0765C125.88 75.0765 122.163 78.8979 122.163 83.6047H84.7452C84.7452 78.7746 80.9333 74.858 76.2357 74.858C72.194 74.858 68.8138 77.7493 67.9449 81.6323C67.9057 81.806 67.9561 81.9909 68.0682 82.131L69.4192 83.7447C69.4192 83.6999 69.4136 83.6551 69.4136 83.6047C69.4136 79.4694 72.8947 76.1691 77.0093 76.6342C80.1485 76.9872 82.6823 79.5983 83.0186 82.8258C83.2989 85.5154 82.0993 87.936 80.1597 89.3424C79.6047 89.7459 78.9377 89.942 78.2594 89.942H73.3152H69.7612H56.8457C55.5788 89.942 54.3287 90.9842 54.1718 92.2785C53.9699 93.9147 55.2088 95.3099 56.7616 95.3099H171.476C190.239 95.3099 205.565 79.2397 204.477 59.7011C203.535 42.6055 189.998 28.8383 173.36 28.037ZM130.942 90.9562C126.614 91.2363 123.043 87.5662 123.318 83.1172C123.542 79.447 126.44 76.4717 130.011 76.2364C134.339 75.9562 137.909 79.6263 137.635 84.0753C137.405 87.7511 134.512 90.7264 130.942 90.9562Z" fill="#F8BC18"/>
<path d="M123.105 63.2312V64.2286C123.105 64.5087 122.886 64.7329 122.612 64.7329H118.161C117.892 64.7329 117.667 64.5087 117.667 64.2286V63.2312C117.667 62.951 117.886 62.7269 118.161 62.7269H122.612C122.886 62.7213 123.105 62.951 123.105 63.2312Z" fill="#F8BC18"/>
<path d="M137.321 57.0058H136.357C135.706 57.0058 135.185 57.5438 135.185 58.2105V60.7152H117.286C116.742 60.7152 116.3 60.2613 116.3 59.701V47.7941C116.3 47.4467 116.574 47.1609 116.916 47.1609H128.839C129.585 47.1609 130.291 47.5027 130.762 48.091L137.539 56.5184C137.696 56.7145 137.562 57.0058 137.321 57.0058Z" fill="#F8BC18"/>
<path d="M144.928 75.0483V78.0405C144.928 78.3094 144.664 78.4999 144.418 78.4047C143.437 78.0349 141.368 76.9926 141.178 74.7513C141.155 74.4712 141.368 74.2302 141.643 74.2302H144.143C144.575 74.2358 144.928 74.6 144.928 75.0483Z" fill="#F8BC18"/>
<path d="M30.1345 105.11V108.484H15.0552C14.6404 108.484 14.2929 108.635 14.0126 108.932C13.7267 109.229 13.5866 109.587 13.5866 109.991V117.185C13.5866 117.594 13.7267 117.947 14.0126 118.244C14.2929 118.541 14.646 118.698 15.0552 118.715H30.1345V122.088H14.4835C13.8108 122.088 13.1717 121.954 12.5663 121.685C11.9609 121.416 11.4284 121.052 10.9575 120.587C10.4922 120.122 10.1222 119.578 9.84195 118.945C9.57288 118.328 9.43274 117.656 9.43274 116.928V110.321C9.43274 109.599 9.56728 108.921 9.83635 108.293C10.1054 107.665 10.4698 107.111 10.9295 106.64C11.3891 106.169 11.9217 105.794 12.5383 105.519C13.1493 105.245 13.7996 105.105 14.4891 105.105H30.1345V105.11Z" fill="#454545"/>
<path d="M47.0525 105.11L56.5542 122.094H52.008L44.1376 107.94L39.5914 116.171H46.4976L48.3811 119.522H37.7583L36.2896 122.094H31.7434L41.245 105.11H47.0525Z" fill="#454545"/>
<path d="M76.09 105.11C76.673 105.11 77.2223 105.211 77.7437 105.407C78.265 105.603 78.7134 105.878 79.1002 106.231C79.4814 106.584 79.7841 107.01 80.0084 107.503C80.2326 107.996 80.3391 108.545 80.3391 109.144V111.576C80.3391 111.89 80.283 112.215 80.1765 112.546C80.07 112.876 79.9187 113.179 79.7281 113.453C79.5375 113.728 79.3132 113.963 79.0498 114.159C78.7919 114.356 78.506 114.484 78.1977 114.546C78.8424 114.669 79.3581 114.989 79.7449 115.487C80.1373 115.992 80.3279 116.563 80.3279 117.208V122.094H76.1965V117.471C76.1797 117.124 76.0563 116.832 75.8321 116.597C75.6023 116.361 75.322 116.244 74.9801 116.244H66.7845L63.4772 112.871H74.952C75.2884 112.871 75.5799 112.77 75.8265 112.574C76.0732 112.378 76.1909 112.109 76.1909 111.761V109.615C76.1909 109.268 76.0732 108.993 75.8377 108.791C75.6023 108.59 75.3108 108.483 74.9744 108.483H62.5466V122.094H58.3928V105.11H76.09Z" fill="#454545"/>
<path d="M104.186 105.11V108.483H88.6242C88.2094 108.483 87.8618 108.635 87.5815 108.943C87.2956 109.251 87.1555 109.61 87.1555 110.019V117.191C87.1555 117.6 87.2956 117.953 87.5815 118.25C87.8674 118.547 88.215 118.704 88.6242 118.72H100.811V115.274H93.6749L90.3676 111.901H104.942V122.094H88.0468C87.3573 122.094 86.707 121.959 86.096 121.69C85.485 121.421 84.9469 121.051 84.4872 120.581C84.0275 120.11 83.6632 119.561 83.3941 118.928C83.125 118.3 82.9905 117.622 82.9905 116.899V110.316C82.9905 109.61 83.125 108.937 83.3941 108.298C83.6632 107.66 84.0275 107.105 84.4872 106.634C84.9469 106.164 85.4794 105.788 86.096 105.514C86.707 105.239 87.3573 105.099 88.0468 105.099H104.186V105.11Z" fill="#454545"/>
<path d="M124.635 105.11C125.325 105.11 125.975 105.25 126.586 105.525C127.197 105.799 127.735 106.175 128.195 106.645C128.654 107.116 129.019 107.671 129.288 108.31C129.557 108.948 129.691 109.621 129.691 110.327V116.911C129.691 117.633 129.557 118.311 129.288 118.939C129.019 119.567 128.654 120.121 128.195 120.592C127.735 121.063 127.202 121.432 126.586 121.701C125.975 121.97 125.325 122.105 124.635 122.105H112.813C112.123 122.105 111.473 121.97 110.862 121.701C110.251 121.432 109.713 121.063 109.253 120.592C108.793 120.121 108.429 119.572 108.166 118.939C107.897 118.311 107.762 117.633 107.762 116.911V110.327C107.762 109.621 107.897 108.948 108.166 108.31C108.435 107.671 108.799 107.116 109.253 106.645C109.713 106.175 110.245 105.799 110.862 105.525C111.473 105.25 112.123 105.11 112.813 105.11H124.635ZM125.554 109.996C125.554 109.587 125.409 109.234 125.117 108.937C124.826 108.64 124.473 108.489 124.063 108.489H113.39C112.975 108.489 112.628 108.64 112.347 108.937C112.062 109.234 111.921 109.593 111.921 109.996V117.191C111.921 117.6 112.062 117.953 112.347 118.25C112.628 118.547 112.981 118.704 113.39 118.72H124.063C124.478 118.704 124.826 118.547 125.117 118.25C125.409 117.953 125.554 117.6 125.554 117.191V109.996Z" fill="#454545"/>
<path d="M136.659 105.11V118.72H151.783V122.094H132.505V105.11H136.659Z" fill="#454545"/>
<path d="M158.236 105.11V122.094H154.082V105.11H158.236Z" fill="#454545"/>
<path d="M183.713 105.11V122.094H178.068L165.607 108.763V122.094H161.453V105.11H167.098L179.582 118.44V105.11H183.713Z" fill="#454545"/>
<path d="M191.085 105.11V112.069L202.655 105.11H208.782L194.964 113.605L208.782 122.099H202.263L191.085 115.235V122.099H186.931V105.116H191.085V105.11Z" fill="#454545"/>
<path d="M27.9763 138.203C28.2398 138.203 28.4584 138.158 28.6322 138.074C28.8059 137.99 28.9461 137.878 29.0526 137.738C29.1591 137.603 29.232 137.447 29.2768 137.278C29.3217 137.11 29.3441 136.937 29.3441 136.769V132.404H31.0874V136.645C31.0874 136.909 31.0706 137.166 31.0314 137.424C30.9921 137.682 30.9305 137.923 30.8352 138.153C30.7399 138.382 30.6222 138.595 30.4652 138.791C30.3139 138.987 30.1233 139.156 29.8878 139.296C29.658 139.436 29.3833 139.548 29.0694 139.632C28.7555 139.716 28.3911 139.749 27.9763 139.749C27.5615 139.749 27.1915 139.71 26.8776 139.632C26.5637 139.553 26.289 139.441 26.0591 139.296C25.8293 139.156 25.6387 138.987 25.4874 138.791C25.336 138.595 25.2127 138.382 25.123 138.153C25.0333 137.923 24.966 137.676 24.9324 137.424C24.8932 137.166 24.8763 136.909 24.8763 136.645V132.404H26.5973V136.769C26.5973 136.942 26.6197 137.11 26.6646 137.278C26.7094 137.447 26.7823 137.603 26.8944 137.738C27.0065 137.872 27.141 137.984 27.3204 138.074C27.4998 138.164 27.7072 138.203 27.9763 138.203Z" fill="#454545"/>
<path d="M33.7557 136.92C33.7837 137.362 33.9014 137.687 34.1032 137.9C34.3106 138.113 34.5965 138.22 34.9665 138.22C35.0674 138.22 35.1795 138.209 35.2916 138.186C35.4094 138.164 35.5103 138.124 35.6112 138.068C35.7065 138.012 35.7849 137.94 35.8466 137.85C35.9083 137.76 35.9419 137.643 35.9419 137.503C35.9419 137.402 35.9139 137.312 35.8634 137.234C35.813 137.155 35.7289 137.082 35.6224 137.009C35.5159 136.937 35.3813 136.869 35.2188 136.796C35.0562 136.724 34.8656 136.645 34.6414 136.556C34.305 136.427 33.9911 136.292 33.6996 136.163C33.4081 136.034 33.1503 135.883 32.9372 135.715C32.7186 135.547 32.5505 135.351 32.4271 135.132C32.3038 134.908 32.2421 134.645 32.2421 134.331C32.2421 134.079 32.2758 133.849 32.343 133.647C32.4103 133.446 32.5056 133.272 32.6233 133.115C32.7467 132.964 32.8868 132.829 33.0438 132.723C33.2063 132.616 33.3801 132.527 33.5651 132.46C33.7501 132.392 33.9463 132.342 34.1481 132.308C34.3499 132.275 34.5517 132.263 34.7535 132.263C35.1459 132.263 35.5047 132.308 35.841 132.392C36.1773 132.476 36.4632 132.622 36.7099 132.824C36.9565 133.025 37.1471 133.3 37.2929 133.636C37.4386 133.978 37.5171 134.398 37.5339 134.908H35.841C35.8354 134.701 35.8074 134.522 35.7513 134.376C35.6952 134.23 35.6224 134.107 35.5327 134.017C35.443 133.928 35.3365 133.855 35.2188 133.816C35.101 133.776 34.9777 133.754 34.8488 133.754C34.7535 133.754 34.6582 133.765 34.5573 133.788C34.4564 133.81 34.3667 133.844 34.2882 133.888C34.2041 133.933 34.1369 133.989 34.0864 134.062C34.036 134.135 34.0079 134.219 34.0079 134.32C34.0079 134.398 34.0304 134.471 34.0808 134.538C34.1257 134.606 34.2041 134.667 34.305 134.734C34.4059 134.802 34.5405 134.869 34.703 134.936C34.8656 135.003 35.0618 135.082 35.2916 135.16C35.7681 135.34 36.1605 135.513 36.4744 135.687C36.7827 135.861 37.0294 136.04 37.2088 136.231C37.3882 136.415 37.5115 136.617 37.5788 136.819C37.646 137.026 37.6853 137.25 37.6853 137.491C37.6853 137.906 37.6124 138.259 37.4666 138.545C37.3209 138.83 37.1247 139.066 36.8724 139.24C36.6202 139.419 36.3231 139.542 35.9811 139.621C35.6392 139.699 35.2748 139.738 34.8824 139.738C34.4956 139.738 34.1313 139.688 33.7893 139.581C33.453 139.475 33.1503 139.312 32.898 139.088C32.6458 138.864 32.4327 138.573 32.2758 138.22C32.1188 137.867 32.0235 137.435 32.0011 136.931H33.7557V136.92Z" fill="#454545"/>
<path d="M32.0852 131.384L32.7691 130.016H37.4106V131.384H32.0852Z" fill="#454545"/>
<path d="M41.2954 136.343V134.466H42.8146V135.009H43.4256V132.398H45.1858V135.009H45.7968V136.343H45.1858V136.645C45.1858 136.909 45.1633 137.166 45.1241 137.424C45.0849 137.682 45.012 137.923 44.9167 138.153C44.8214 138.382 44.6925 138.595 44.5299 138.791C44.3673 138.987 44.1711 139.156 43.9301 139.296C43.689 139.436 43.4088 139.548 43.0836 139.632C42.7585 139.71 42.3829 139.749 41.9625 139.749C41.5309 139.749 41.1497 139.71 40.8189 139.632C40.4938 139.553 40.2079 139.441 39.9669 139.296C39.7258 139.156 39.524 138.987 39.3671 138.791C39.2045 138.595 39.0812 138.382 38.9859 138.153C38.8906 137.923 38.8233 137.676 38.7785 137.424C38.7392 137.166 38.7168 136.909 38.7168 136.645V132.404H40.4546V136.769C40.4546 136.942 40.477 137.11 40.5274 137.278C40.5779 137.447 40.6564 137.603 40.7741 137.738C40.8918 137.872 41.0432 137.984 41.2394 138.074C41.4356 138.164 41.671 138.203 41.9569 138.203C42.2428 138.203 42.4782 138.158 42.6688 138.074C42.8594 137.99 43.0051 137.878 43.1173 137.738C43.2294 137.598 43.3079 137.447 43.3527 137.278C43.3975 137.11 43.42 136.937 43.42 136.769V136.343H41.2954Z" fill="#454545"/>
<path d="M41.2617 131.384V129.4H42.7977V130.017H46.1275V131.384H41.2617Z" fill="#454545"/>
<path d="M48.1735 132.403V133.154C48.3081 133.009 48.4426 132.88 48.5772 132.768C48.7117 132.656 48.8574 132.56 49.0088 132.482C49.1601 132.403 49.3283 132.347 49.5021 132.303C49.6759 132.263 49.8721 132.241 50.0851 132.241C50.5952 132.241 51.0156 132.308 51.352 132.443C51.6883 132.577 51.9574 132.762 52.1592 133.003C52.361 133.244 52.5067 133.53 52.5908 133.866C52.6749 134.202 52.7141 134.572 52.7141 134.97V139.581H50.9876V134.846C50.9876 134.69 50.9652 134.555 50.9147 134.426C50.8643 134.303 50.797 134.197 50.7017 134.107C50.612 134.017 50.4999 133.95 50.3654 133.9C50.2308 133.849 50.0851 133.827 49.9169 133.827C49.6366 133.827 49.39 133.872 49.1826 133.956C48.9752 134.045 48.7958 134.163 48.6612 134.32C48.5211 134.477 48.4202 134.662 48.3473 134.875C48.2801 135.087 48.2408 135.323 48.2408 135.575V139.576H46.5031V132.387H48.1735V132.403Z" fill="#454545"/>
<path d="M58.6282 139.587H56.9072V135.345C56.9072 135.082 56.9296 134.824 56.9745 134.566C57.0193 134.309 57.0922 134.068 57.1931 133.838C57.294 133.608 57.4229 133.395 57.5911 133.199C57.7537 133.003 57.9555 132.835 58.1965 132.695C58.4376 132.555 58.7179 132.443 59.0374 132.359C59.3569 132.28 59.7325 132.241 60.1473 132.241C60.5621 132.241 60.9265 132.28 61.2516 132.359C61.5768 132.437 61.8514 132.549 62.0869 132.695C62.3223 132.835 62.5241 133.009 62.6867 133.199C62.8492 133.395 62.9782 133.608 63.0791 133.838C63.18 134.068 63.2472 134.314 63.2921 134.566C63.3369 134.824 63.3538 135.082 63.3538 135.345V139.587H61.6104V135.205C61.6104 135.037 61.5824 134.875 61.5319 134.701C61.4759 134.533 61.3918 134.376 61.2741 134.241C61.1563 134.107 61.005 133.995 60.82 133.911C60.635 133.827 60.4108 133.782 60.1473 133.782C59.8838 133.782 59.654 133.827 59.4634 133.911C59.2728 133.995 59.1159 134.107 58.9925 134.241C58.8692 134.376 58.7795 134.527 58.7179 134.701C58.6562 134.869 58.6282 135.037 58.6282 135.205V135.872C58.7571 135.743 58.8916 135.625 59.0318 135.524C59.1719 135.424 59.3289 135.34 59.4914 135.272C59.654 135.205 59.8334 135.155 60.0296 135.121C60.2202 135.087 60.4332 135.065 60.6574 135.059V136.606C60.2931 136.623 59.9847 136.673 59.7269 136.774C59.469 136.869 59.2616 137.009 59.099 137.183C58.9365 137.357 58.8188 137.564 58.7403 137.811C58.6618 138.052 58.6282 138.326 58.6282 138.629V139.587Z" fill="#454545"/>
<path d="M64.1554 134.925C64.1554 134.493 64.2339 134.107 64.3852 133.776C64.5366 133.446 64.7384 133.166 64.9906 132.936C65.2429 132.712 65.5288 132.538 65.8539 132.42C66.1791 132.303 66.5098 132.247 66.8517 132.247C67.2217 132.247 67.5637 132.297 67.8888 132.398C68.2083 132.499 68.4886 132.65 68.724 132.852C68.9595 133.053 69.1445 133.311 69.279 133.625C69.4135 133.939 69.4808 134.309 69.4808 134.734V139.592H67.7374V134.964C67.7374 134.55 67.6646 134.253 67.5076 134.068C67.3506 133.883 67.1376 133.787 66.8461 133.787C66.5883 133.787 66.3809 133.883 66.2183 134.073C66.0557 134.264 65.966 134.55 65.9436 134.925H64.1554Z" fill="#454545"/>
<path d="M72.1546 136.92C72.1826 137.362 72.3004 137.687 72.5022 137.9C72.7096 138.113 72.9955 138.22 73.3654 138.22C73.4663 138.22 73.5784 138.209 73.6906 138.186C73.8083 138.164 73.9092 138.124 74.0101 138.068C74.1054 138.012 74.1839 137.94 74.2455 137.85C74.3072 137.76 74.3408 137.643 74.3408 137.503C74.3408 137.402 74.3128 137.312 74.2623 137.234C74.2119 137.155 74.1278 137.082 74.0213 137.009C73.9148 136.937 73.7803 136.869 73.6177 136.796C73.4551 136.724 73.2645 136.645 73.0403 136.556C72.704 136.427 72.39 136.292 72.0985 136.163C71.8071 136.034 71.5492 135.883 71.3362 135.715C71.1176 135.547 70.9494 135.351 70.8261 135.132C70.7027 134.908 70.6411 134.645 70.6411 134.331C70.6411 134.079 70.6747 133.849 70.742 133.647C70.8092 133.446 70.9045 133.272 71.0223 133.115C71.1456 132.964 71.2857 132.829 71.4427 132.723C71.6052 132.616 71.779 132.527 71.964 132.46C72.149 132.392 72.3452 132.342 72.547 132.308C72.7488 132.275 72.9506 132.263 73.1524 132.263C73.5448 132.263 73.9036 132.308 74.2399 132.392C74.5763 132.476 74.8622 132.622 75.1088 132.824C75.3555 133.025 75.546 133.3 75.6918 133.636C75.8375 133.978 75.916 134.398 75.9328 134.908H74.2399C74.2343 134.701 74.2063 134.522 74.1502 134.376C74.0942 134.23 74.0213 134.107 73.9316 134.017C73.8419 133.928 73.7354 133.855 73.6177 133.816C73.5 133.776 73.3766 133.754 73.2477 133.754C73.1524 133.754 73.0571 133.765 72.9562 133.788C72.8553 133.81 72.7656 133.844 72.6871 133.888C72.6031 133.933 72.5358 133.989 72.4853 134.062C72.4349 134.135 72.4069 134.219 72.4069 134.32C72.4069 134.398 72.4293 134.471 72.4797 134.538C72.5246 134.606 72.6031 134.667 72.704 134.734C72.8049 134.802 72.9394 134.869 73.102 134.936C73.2645 135.003 73.4607 135.082 73.6906 135.16C74.167 135.34 74.5594 135.513 74.8734 135.687C75.1817 135.861 75.4283 136.04 75.6077 136.231C75.7871 136.415 75.9104 136.617 75.9777 136.819C76.0449 137.026 76.0842 137.25 76.0842 137.491C76.0842 137.906 76.0113 138.259 75.8656 138.545C75.7198 138.83 75.5236 139.066 75.2714 139.24C75.0191 139.419 74.722 139.542 74.3801 139.621C74.0381 139.699 73.6737 139.738 73.2813 139.738C72.8946 139.738 72.5302 139.688 72.1882 139.581C71.8519 139.475 71.5492 139.312 71.2969 139.088C71.0447 138.864 70.8317 138.573 70.6747 138.22C70.5177 137.867 70.4224 137.435 70.4 136.931H72.1546V136.92Z" fill="#454545"/>
<path d="M76.1291 130.157C75.9217 130.157 75.7367 130.185 75.5742 130.246C75.4116 130.302 75.2771 130.386 75.1706 130.493C75.064 130.599 74.98 130.728 74.9183 130.874C74.8566 131.019 74.8342 131.188 74.8342 131.367H73.1749C73.1749 130.975 73.2478 130.627 73.3935 130.325C73.5393 130.022 73.7467 129.764 74.0102 129.551C74.2736 129.338 74.582 129.182 74.9463 129.069C75.3051 128.957 75.7031 128.901 76.1291 128.896V130.157Z" fill="#454545"/>
<path d="M77.6202 131.154C77.6202 131.025 77.5978 130.896 77.5473 130.778C77.4969 130.661 77.4296 130.56 77.3399 130.47C77.2502 130.381 77.1437 130.313 77.0148 130.263C76.8915 130.213 76.7513 130.185 76.5944 130.185L76.9363 128.907H80.5856L81.1854 130.325H78.9488C79.0104 130.375 79.0665 130.442 79.1169 130.521C79.1674 130.599 79.2122 130.683 79.2459 130.773C79.2795 130.863 79.3131 130.958 79.3299 131.059C79.3468 131.159 79.358 131.255 79.358 131.344V138.197H80.0587V139.587H77.6202V131.154Z" fill="#454545"/>
<path d="M83.8762 133.782C83.6519 133.782 83.4501 133.799 83.2764 133.843C83.1026 133.888 82.9568 133.944 82.8335 134.017C82.7102 134.09 82.6093 134.168 82.5308 134.253C82.4523 134.337 82.4019 134.421 82.3738 134.499C82.5196 134.634 82.6261 134.807 82.6934 135.015C82.7606 135.222 82.7999 135.463 82.7999 135.726V139.581H81.0733V135.709C81.0733 135.631 81.0621 135.547 81.0509 135.463C81.0397 135.379 81.0061 135.295 80.9612 135.211C80.9164 135.127 80.8547 135.048 80.7762 134.964C80.6977 134.88 80.6025 134.807 80.4791 134.74C80.524 134.538 80.5912 134.337 80.6809 134.135C80.7706 133.933 80.8771 133.737 81.0117 133.552C81.1462 133.367 81.3032 133.194 81.4825 133.037C81.6619 132.874 81.8749 132.74 82.1048 132.622C82.3346 132.504 82.6037 132.409 82.8952 132.342C83.1867 132.275 83.5118 132.241 83.865 132.241C84.2854 132.241 84.661 132.28 84.9861 132.359C85.3112 132.437 85.5971 132.544 85.8438 132.684C86.0904 132.824 86.2978 132.986 86.466 133.182C86.6342 133.373 86.7743 133.586 86.8752 133.81C86.9761 134.034 87.0546 134.275 87.0994 134.527C87.1443 134.779 87.1723 135.031 87.1723 135.295V139.592H85.4177V135.177C85.4177 135.015 85.3897 134.846 85.3393 134.684C85.2888 134.521 85.1991 134.37 85.0814 134.241C84.9637 134.112 84.8011 134.006 84.6049 133.922C84.4199 133.832 84.1733 133.787 83.8762 133.782Z" fill="#454545"/>
<path d="M83.5678 131.367V130.213H82.9736V129.053H84.8964V130.123C85.0758 130.123 85.2439 130.095 85.4009 130.034C85.5578 129.972 85.6924 129.893 85.8045 129.793C85.9222 129.692 86.0119 129.58 86.0792 129.451C86.1464 129.322 86.1801 129.187 86.1801 129.053H87.5423C87.5423 129.35 87.4862 129.641 87.3629 129.921C87.2395 130.202 87.0658 130.448 86.8303 130.661C86.5949 130.874 86.2922 131.048 85.939 131.177C85.5803 131.306 85.1598 131.373 84.6778 131.373H83.5678V131.367Z" fill="#454545"/>
<path d="M95.6986 136.292C95.508 136.415 95.3174 136.505 95.1268 136.561C94.9362 136.617 94.7568 136.662 94.5943 136.696C94.3925 136.735 94.1963 136.774 93.9945 136.813C93.7927 136.852 93.6133 136.903 93.4563 136.965C93.2994 137.026 93.1704 137.099 93.0695 137.183C92.9686 137.267 92.9238 137.379 92.9238 137.519C92.9238 137.671 92.9574 137.794 93.0191 137.895C93.0808 137.996 93.1648 138.08 93.2657 138.141C93.3666 138.203 93.4788 138.248 93.6077 138.27C93.731 138.298 93.8599 138.309 93.9833 138.309C94.1066 138.309 94.2467 138.298 94.4149 138.27C94.5775 138.242 94.7625 138.203 94.9587 138.152V139.52C94.7232 139.587 94.5102 139.637 94.3084 139.677C94.1066 139.71 93.9104 139.733 93.7142 139.733C93.3723 139.733 93.0471 139.693 92.7444 139.621C92.4417 139.548 92.1726 139.424 91.9372 139.256C91.7074 139.088 91.5224 138.87 91.3878 138.601C91.2533 138.332 91.186 138.001 91.186 137.609C91.186 137.357 91.2197 137.133 91.2869 136.937C91.3542 136.74 91.4495 136.567 91.5784 136.415C91.7074 136.264 91.8643 136.135 92.0493 136.023C92.2343 135.911 92.4417 135.816 92.6771 135.726C92.9126 135.637 93.1704 135.564 93.4507 135.502C93.731 135.435 94.0337 135.373 94.3532 135.317C94.5214 135.284 94.6896 135.25 94.8521 135.205C95.0147 135.16 95.1605 135.11 95.2838 135.048C95.4127 134.987 95.5136 134.914 95.5865 134.83C95.665 134.746 95.6986 134.65 95.6986 134.538C95.6986 134.365 95.665 134.225 95.5921 134.129C95.5192 134.034 95.4295 133.956 95.3174 133.905C95.2053 133.855 95.0764 133.821 94.9362 133.81C94.7961 133.799 94.6559 133.793 94.5158 133.793C94.3252 133.793 94.157 133.81 94.0001 133.844C93.8431 133.877 93.7086 133.939 93.5909 134.028C93.4732 134.118 93.3835 134.241 93.3106 134.398C93.2377 134.555 93.1985 134.757 93.1873 135.003H91.4103C91.4215 134.65 91.4663 134.337 91.5504 134.062C91.6345 133.787 91.7466 133.547 91.8924 133.345C92.0325 133.143 92.2063 132.969 92.3969 132.829C92.5875 132.689 92.8061 132.577 93.0359 132.493C93.2657 132.409 93.518 132.342 93.7815 132.308C94.0449 132.269 94.3196 132.252 94.5999 132.252C94.8241 132.252 95.0427 132.263 95.2726 132.291C95.4968 132.319 95.7154 132.364 95.9228 132.431C96.1302 132.499 96.3264 132.583 96.5058 132.695C96.6852 132.807 96.8478 132.941 96.9823 133.104C97.1168 133.266 97.2233 133.463 97.3018 133.692C97.3803 133.916 97.4195 134.18 97.4195 134.477V139.598H95.693V136.292H95.6986Z" fill="#454545"/>
<path d="M91.057 131.384L91.7353 130.016H97.397V131.384H91.057Z" fill="#454545"/>
<path d="M94.5494 128.913V127.753H93.9552V126.599H95.8835V127.669C96.0685 127.669 96.2423 127.641 96.4105 127.579C96.573 127.518 96.7188 127.439 96.8421 127.338C96.9654 127.237 97.0607 127.125 97.128 126.996C97.1953 126.868 97.2345 126.733 97.2345 126.599H98.535C98.535 126.896 98.4734 127.181 98.3556 127.462C98.2379 127.742 98.0585 127.988 97.8231 128.201C97.5821 128.414 97.285 128.588 96.9262 128.717C96.5674 128.846 96.147 128.913 95.6649 128.913H94.5494Z" fill="#454545"/>
<path d="M100.968 138.063C100.996 138.13 101.024 138.181 101.063 138.209C101.097 138.237 101.142 138.253 101.192 138.253C101.243 138.253 101.282 138.237 101.315 138.197C101.349 138.158 101.366 138.119 101.366 138.08V133.855H100.424V132.398H103.104V137.867C103.104 138.203 103.053 138.489 102.952 138.724C102.851 138.965 102.717 139.156 102.543 139.312C102.369 139.464 102.167 139.576 101.932 139.649C101.697 139.721 101.444 139.755 101.175 139.755C100.901 139.755 100.665 139.721 100.463 139.654C100.262 139.587 100.088 139.492 99.9364 139.374C99.7906 139.251 99.6617 139.099 99.5552 138.926C99.4487 138.752 99.359 138.55 99.2805 138.332L98.137 135.11H99.9476L100.968 138.063Z" fill="#454545"/>
<path d="M106.119 139.587H104.399V135.345C104.399 135.082 104.421 134.824 104.466 134.566C104.511 134.309 104.584 134.068 104.684 133.838C104.785 133.608 104.914 133.395 105.082 133.199C105.245 133.003 105.447 132.835 105.688 132.695C105.929 132.555 106.209 132.443 106.529 132.359C106.848 132.28 107.224 132.241 107.639 132.241C108.053 132.241 108.418 132.28 108.743 132.359C109.068 132.437 109.343 132.549 109.578 132.695C109.814 132.835 110.015 133.009 110.178 133.199C110.341 133.395 110.47 133.608 110.57 133.838C110.671 134.068 110.739 134.314 110.783 134.566C110.828 134.824 110.845 135.082 110.845 135.345V139.587H109.102V135.205C109.102 135.037 109.074 134.875 109.023 134.701C108.967 134.533 108.883 134.376 108.765 134.241C108.648 134.107 108.496 133.995 108.311 133.911C108.126 133.827 107.902 133.782 107.639 133.782C107.375 133.782 107.145 133.827 106.955 133.911C106.764 133.995 106.607 134.107 106.484 134.241C106.361 134.376 106.271 134.527 106.209 134.701C106.148 134.869 106.119 135.037 106.119 135.205V135.872C106.248 135.743 106.383 135.625 106.523 135.524C106.663 135.424 106.82 135.34 106.983 135.272C107.145 135.205 107.325 135.155 107.521 135.121C107.712 135.087 107.925 135.065 108.149 135.059V136.606C107.784 136.623 107.476 136.673 107.218 136.774C106.96 136.869 106.753 137.009 106.59 137.183C106.428 137.357 106.31 137.564 106.232 137.811C106.153 138.052 106.119 138.326 106.119 138.629V139.587Z" fill="#454545"/>
<path d="M111.153 130.157C110.946 130.157 110.761 130.185 110.598 130.246C110.436 130.302 110.301 130.386 110.195 130.493C110.088 130.599 110.004 130.728 109.943 130.874C109.881 131.019 109.858 131.188 109.858 131.367H108.199C108.199 130.975 108.272 130.627 108.418 130.325C108.564 130.022 108.771 129.764 109.034 129.551C109.298 129.338 109.606 129.182 109.971 129.069C110.329 128.957 110.727 128.901 111.153 128.896V130.157Z" fill="#454545"/>
<path d="M115.229 131.154C115.229 131.025 115.206 130.896 115.156 130.778C115.105 130.661 115.038 130.56 114.948 130.47C114.859 130.381 114.752 130.313 114.623 130.263C114.5 130.213 114.36 130.185 114.203 130.185L114.545 128.907H118.194L118.794 130.325H116.557C116.619 130.375 116.675 130.442 116.725 130.521C116.776 130.599 116.821 130.683 116.854 130.773C116.888 130.863 116.922 130.958 116.938 131.059C116.955 131.159 116.966 131.255 116.966 131.344V138.197H117.667V139.587H115.229V131.154Z" fill="#454545"/>
<path d="M122.903 136.292C122.712 136.415 122.522 136.505 122.331 136.561C122.14 136.617 121.961 136.662 121.799 136.696C121.597 136.735 121.401 136.774 121.199 136.813C120.997 136.852 120.818 136.903 120.661 136.965C120.504 137.026 120.375 137.099 120.274 137.183C120.173 137.267 120.128 137.379 120.128 137.519C120.128 137.671 120.162 137.794 120.223 137.895C120.285 137.996 120.369 138.08 120.47 138.141C120.571 138.203 120.683 138.248 120.812 138.27C120.935 138.298 121.064 138.309 121.188 138.309C121.311 138.309 121.451 138.298 121.619 138.27C121.782 138.242 121.967 138.203 122.163 138.152V139.52C121.927 139.587 121.714 139.637 121.513 139.677C121.311 139.71 121.115 139.733 120.918 139.733C120.576 139.733 120.251 139.693 119.949 139.621C119.646 139.548 119.377 139.424 119.141 139.256C118.912 139.088 118.727 138.87 118.592 138.601C118.458 138.332 118.39 138.001 118.39 137.609C118.39 137.357 118.424 137.133 118.491 136.937C118.558 136.74 118.654 136.567 118.783 136.415C118.912 136.264 119.069 136.135 119.254 136.023C119.439 135.911 119.646 135.816 119.881 135.726C120.117 135.637 120.375 135.564 120.655 135.502C120.935 135.435 121.238 135.373 121.557 135.317C121.726 135.284 121.894 135.25 122.056 135.205C122.219 135.16 122.365 135.11 122.488 135.048C122.617 134.987 122.718 134.914 122.791 134.83C122.869 134.746 122.903 134.65 122.903 134.538C122.903 134.365 122.869 134.225 122.796 134.129C122.723 134.034 122.634 133.956 122.522 133.905C122.41 133.855 122.281 133.821 122.14 133.81C122 133.799 121.86 133.793 121.72 133.793C121.529 133.793 121.361 133.81 121.204 133.844C121.047 133.877 120.913 133.939 120.795 134.028C120.677 134.118 120.588 134.241 120.515 134.398C120.442 134.555 120.403 134.757 120.391 135.003H118.614C118.626 134.65 118.671 134.337 118.755 134.062C118.839 133.787 118.951 133.547 119.097 133.345C119.237 133.143 119.41 132.969 119.601 132.829C119.792 132.689 120.01 132.577 120.24 132.493C120.47 132.409 120.722 132.342 120.986 132.308C121.249 132.269 121.524 132.252 121.804 132.252C122.028 132.252 122.247 132.263 122.477 132.291C122.701 132.319 122.92 132.364 123.127 132.431C123.334 132.499 123.531 132.583 123.71 132.695C123.889 132.807 124.052 132.941 124.187 133.104C124.321 133.266 124.428 133.463 124.506 133.692C124.585 133.916 124.624 134.18 124.624 134.477V139.598H122.897V136.292H122.903Z" fill="#454545"/>
<path d="M127.085 136.942H126.233V135.463H128.38L129.047 137.536C129.092 137.407 129.148 137.262 129.204 137.105C129.26 136.948 129.316 136.785 129.372 136.623C129.428 136.46 129.478 136.298 129.535 136.135C129.585 135.973 129.63 135.821 129.669 135.676C129.708 135.53 129.736 135.401 129.764 135.284C129.787 135.166 129.798 135.071 129.798 134.998C129.798 134.622 129.703 134.325 129.512 134.107C129.321 133.894 129.03 133.782 128.638 133.782C128.318 133.782 128.06 133.877 127.87 134.073C127.673 134.269 127.539 134.55 127.46 134.919H125.571C125.639 134.527 125.756 134.163 125.936 133.838C126.109 133.507 126.334 133.227 126.608 132.992C126.883 132.756 127.197 132.572 127.567 132.437C127.931 132.308 128.34 132.241 128.783 132.241C129.002 132.241 129.226 132.258 129.45 132.297C129.675 132.331 129.888 132.392 130.095 132.471C130.302 132.555 130.499 132.661 130.684 132.79C130.869 132.919 131.026 133.087 131.16 133.278C131.295 133.468 131.401 133.698 131.48 133.956C131.558 134.213 131.597 134.516 131.597 134.852C131.597 135.009 131.575 135.194 131.53 135.412C131.485 135.631 131.424 135.866 131.345 136.13C131.267 136.393 131.171 136.662 131.07 136.948C130.964 137.233 130.852 137.53 130.734 137.827C130.616 138.124 130.493 138.421 130.364 138.724C130.235 139.021 130.112 139.312 129.994 139.587H128.015L127.085 136.942Z" fill="#454545"/>
<path d="M126.177 131.384L126.861 130.016H131.502V131.384H126.177Z" fill="#454545"/>
<path d="M137.13 136.292C136.94 136.415 136.749 136.505 136.558 136.561C136.368 136.617 136.188 136.662 136.026 136.696C135.824 136.735 135.628 136.774 135.426 136.813C135.224 136.852 135.045 136.897 134.888 136.959C134.731 137.015 134.602 137.088 134.501 137.172C134.4 137.256 134.355 137.368 134.355 137.508C134.355 137.659 134.389 137.783 134.451 137.883C134.512 137.984 134.596 138.068 134.697 138.13C134.798 138.192 134.91 138.236 135.039 138.265C135.163 138.293 135.291 138.309 135.415 138.309C135.538 138.309 135.678 138.298 135.846 138.27C136.009 138.242 136.194 138.203 136.39 138.152V139.52C136.155 139.587 135.942 139.637 135.74 139.677C135.538 139.71 135.342 139.733 135.146 139.733C134.804 139.733 134.479 139.693 134.176 139.615C133.873 139.536 133.604 139.413 133.369 139.245C133.139 139.077 132.954 138.853 132.819 138.584C132.685 138.315 132.618 137.984 132.618 137.592C132.618 137.211 132.69 136.897 132.842 136.645C132.993 136.393 133.206 136.18 133.481 136.012C133.756 135.844 134.092 135.709 134.484 135.603C134.877 135.496 135.314 135.401 135.79 135.317C135.959 135.284 136.127 135.25 136.289 135.205C136.452 135.16 136.598 135.11 136.721 135.048C136.85 134.987 136.951 134.914 137.024 134.83C137.102 134.746 137.136 134.65 137.136 134.538C137.136 134.365 137.102 134.225 137.029 134.129C136.956 134.034 136.867 133.956 136.755 133.905C136.642 133.855 136.513 133.821 136.373 133.81C136.233 133.799 136.093 133.793 135.953 133.793C135.762 133.793 135.594 133.81 135.437 133.844C135.28 133.877 135.146 133.939 135.028 134.028C134.91 134.118 134.821 134.241 134.748 134.398C134.675 134.555 134.636 134.757 134.624 135.003H132.847C132.859 134.65 132.903 134.337 132.988 134.062C133.072 133.787 133.184 133.547 133.329 133.345C133.47 133.143 133.643 132.969 133.834 132.829C134.025 132.689 134.243 132.577 134.473 132.493C134.703 132.409 134.955 132.342 135.219 132.308C135.482 132.269 135.757 132.252 136.037 132.252C136.261 132.252 136.48 132.263 136.704 132.291C136.928 132.319 137.141 132.364 137.349 132.426C137.41 132.387 137.461 132.336 137.506 132.28C137.551 132.224 137.584 132.157 137.612 132.09C137.64 132.022 137.657 131.955 137.674 131.882C137.685 131.815 137.691 131.748 137.691 131.686H139.445C139.445 131.843 139.423 132 139.384 132.157C139.344 132.314 139.288 132.465 139.21 132.605C139.137 132.745 139.042 132.88 138.935 132.997C138.823 133.115 138.7 133.216 138.56 133.3C138.655 133.457 138.728 133.631 138.778 133.827C138.829 134.017 138.851 134.236 138.851 134.477V139.598H137.125V136.292H137.13Z" fill="#454545"/>
<path d="M141.889 135.082V137.329L142.865 136.343H142.371V135.239H144.675V136.309L141.62 139.587H140.152V135.222C140.152 134.891 140.191 134.572 140.269 134.253C140.348 133.933 140.477 133.642 140.662 133.373C140.841 133.104 141.082 132.869 141.374 132.672C141.665 132.476 142.03 132.331 142.456 132.235L143.532 132.969L144.625 132.252C145.04 132.347 145.387 132.499 145.673 132.695C145.959 132.891 146.189 133.121 146.368 133.384C146.548 133.647 146.677 133.939 146.755 134.253C146.834 134.566 146.873 134.886 146.873 135.216V139.581H145.135V135.076C145.135 134.88 145.096 134.695 145.017 134.51C144.939 134.325 144.81 134.168 144.642 134.028L143.907 134.482C143.795 134.544 143.678 134.583 143.549 134.589C143.42 134.6 143.291 134.561 143.156 134.482L142.399 134.012C142.22 134.152 142.091 134.32 142.007 134.51C141.929 134.695 141.889 134.886 141.889 135.082Z" fill="#454545"/>
<path d="M140.51 131.384L141.189 130.016H146.85V131.384H140.51Z" fill="#454545"/>
<path d="M151.066 133.782C150.842 133.782 150.64 133.799 150.466 133.843C150.292 133.888 150.141 133.944 150.023 134.017C149.905 134.09 149.799 134.168 149.726 134.253C149.648 134.337 149.597 134.421 149.569 134.499C149.715 134.634 149.821 134.807 149.889 135.015C149.956 135.222 149.995 135.463 149.995 135.726V139.581H148.269V135.709C148.269 135.631 148.263 135.547 148.246 135.463C148.229 135.379 148.201 135.295 148.157 135.211C148.112 135.127 148.05 135.048 147.972 134.964C147.893 134.88 147.798 134.807 147.674 134.74C147.719 134.538 147.792 134.337 147.876 134.135C147.966 133.933 148.072 133.737 148.207 133.552C148.342 133.367 148.498 133.194 148.678 133.037C148.857 132.874 149.07 132.74 149.3 132.622C149.53 132.504 149.799 132.409 150.09 132.342C150.382 132.275 150.707 132.241 151.066 132.241C151.486 132.241 151.862 132.28 152.187 132.359C152.512 132.437 152.798 132.544 153.045 132.684C153.291 132.824 153.499 132.986 153.667 133.182C153.835 133.373 153.975 133.586 154.076 133.81C154.183 134.034 154.256 134.275 154.306 134.527C154.356 134.779 154.379 135.031 154.379 135.295V139.592H152.619V135.177C152.619 135.015 152.596 134.846 152.54 134.684C152.49 134.521 152.4 134.37 152.282 134.241C152.165 134.112 152.002 134.006 151.806 133.922C151.61 133.832 151.363 133.787 151.066 133.782Z" fill="#454545"/>
<path d="M159.99 136.292C159.8 136.415 159.609 136.505 159.418 136.561C159.228 136.617 159.048 136.662 158.886 136.696C158.684 136.735 158.488 136.774 158.286 136.813C158.084 136.852 157.905 136.897 157.748 136.959C157.591 137.021 157.456 137.088 157.361 137.172C157.266 137.256 157.215 137.368 157.215 137.508C157.215 137.659 157.249 137.783 157.311 137.883C157.372 137.984 157.456 138.068 157.557 138.13C157.658 138.192 157.77 138.236 157.899 138.265C158.023 138.293 158.151 138.309 158.275 138.309C158.398 138.309 158.538 138.298 158.706 138.27C158.875 138.242 159.054 138.203 159.25 138.152V139.52C159.015 139.587 158.802 139.637 158.6 139.677C158.398 139.71 158.202 139.733 158.006 139.733C157.664 139.733 157.339 139.693 157.036 139.615C156.733 139.536 156.464 139.413 156.229 139.245C155.999 139.077 155.814 138.853 155.679 138.584C155.545 138.315 155.478 137.984 155.478 137.592C155.478 137.211 155.55 136.897 155.702 136.645C155.853 136.393 156.066 136.18 156.341 136.012C156.615 135.844 156.952 135.709 157.344 135.603C157.737 135.496 158.174 135.401 158.65 135.317C158.819 135.284 158.987 135.25 159.149 135.205C159.312 135.16 159.458 135.11 159.581 135.048C159.704 134.987 159.811 134.914 159.884 134.83C159.956 134.746 159.996 134.65 159.996 134.538C159.996 134.365 159.962 134.225 159.889 134.129C159.822 134.028 159.727 133.956 159.615 133.905C159.502 133.855 159.373 133.821 159.233 133.81C159.093 133.799 158.953 133.793 158.813 133.793C158.622 133.793 158.449 133.81 158.292 133.844C158.135 133.877 158 133.939 157.882 134.028C157.765 134.118 157.675 134.241 157.602 134.398C157.529 134.555 157.49 134.757 157.479 135.003H155.707C155.719 134.65 155.763 134.337 155.848 134.062C155.932 133.787 156.044 133.547 156.189 133.345C156.335 133.143 156.503 132.969 156.694 132.829C156.89 132.689 157.103 132.577 157.333 132.493C157.563 132.403 157.815 132.342 158.079 132.308C158.342 132.269 158.617 132.252 158.897 132.252C159.121 132.252 159.34 132.263 159.564 132.291C159.788 132.319 160.001 132.364 160.209 132.426C160.27 132.387 160.321 132.336 160.366 132.28C160.411 132.224 160.444 132.157 160.472 132.09C160.5 132.022 160.517 131.955 160.534 131.882C160.545 131.815 160.551 131.748 160.551 131.686H162.305C162.305 131.843 162.283 132 162.244 132.157C162.204 132.314 162.148 132.465 162.07 132.605C161.991 132.745 161.902 132.88 161.795 132.997C161.689 133.115 161.56 133.216 161.42 133.3C161.515 133.457 161.588 133.631 161.638 133.827C161.689 134.023 161.711 134.236 161.711 134.477V139.598H159.984V136.292H159.99Z" fill="#454545"/>
<path d="M162.014 130.157C161.806 130.157 161.621 130.185 161.459 130.246C161.296 130.302 161.162 130.386 161.055 130.493C160.949 130.599 160.865 130.728 160.803 130.874C160.741 131.019 160.719 131.188 160.719 131.367H159.06C159.06 130.975 159.132 130.627 159.278 130.325C159.424 130.022 159.631 129.764 159.895 129.551C160.158 129.338 160.467 129.182 160.831 129.069C161.19 128.957 161.588 128.901 162.014 128.896V130.157Z" fill="#454545"/>
<path d="M167.064 136.942H166.212V135.463H168.359L169.026 137.536C169.071 137.407 169.127 137.262 169.183 137.105C169.239 136.948 169.296 136.785 169.352 136.623C169.408 136.46 169.458 136.298 169.514 136.135C169.565 135.973 169.609 135.821 169.649 135.676C169.688 135.53 169.716 135.401 169.744 135.284C169.766 135.166 169.778 135.071 169.778 134.998C169.778 134.622 169.682 134.325 169.492 134.107C169.301 133.894 169.01 133.782 168.617 133.782C168.298 133.782 168.04 133.877 167.844 134.073C167.647 134.269 167.513 134.55 167.434 134.919H165.545C165.613 134.527 165.73 134.163 165.91 133.838C166.083 133.507 166.308 133.227 166.582 132.992C166.857 132.756 167.171 132.572 167.541 132.437C167.905 132.308 168.315 132.241 168.757 132.241C168.976 132.241 169.2 132.258 169.419 132.297C169.643 132.331 169.856 132.392 170.069 132.471C170.276 132.555 170.473 132.661 170.658 132.79C170.843 132.925 171 133.087 171.134 133.278C171.269 133.468 171.375 133.698 171.454 133.956C171.532 134.213 171.571 134.516 171.571 134.852C171.571 135.009 171.549 135.194 171.504 135.412C171.459 135.631 171.398 135.866 171.319 136.13C171.241 136.393 171.145 136.662 171.044 136.948C170.938 137.233 170.826 137.53 170.708 137.827C170.59 138.124 170.467 138.421 170.338 138.724C170.215 139.021 170.092 139.312 169.968 139.587H167.989L167.064 136.942Z" fill="#454545"/>
<path d="M169.127 130.067C169.127 129.854 169.167 129.658 169.24 129.479C169.318 129.294 169.419 129.137 169.548 129.002C169.677 128.868 169.834 128.762 170.008 128.683C170.181 128.605 170.372 128.565 170.574 128.565C170.77 128.565 170.96 128.605 171.134 128.683C171.314 128.762 171.465 128.868 171.6 129.002C171.734 129.137 171.841 129.299 171.919 129.479C171.998 129.664 172.037 129.86 172.037 130.067C172.037 130.274 171.998 130.465 171.919 130.65C171.841 130.829 171.734 130.986 171.6 131.121C171.465 131.255 171.314 131.361 171.134 131.44C170.955 131.518 170.77 131.558 170.574 131.558C170.372 131.558 170.187 131.518 170.008 131.44C169.828 131.361 169.677 131.255 169.548 131.121C169.419 130.986 169.312 130.829 169.24 130.65C169.167 130.465 169.127 130.274 169.127 130.067ZM170.052 130.067C170.052 130.134 170.069 130.202 170.097 130.269C170.125 130.336 170.164 130.392 170.215 130.443C170.265 130.493 170.321 130.532 170.383 130.566C170.445 130.594 170.512 130.611 170.579 130.611C170.652 130.611 170.719 130.594 170.787 130.566C170.854 130.538 170.91 130.493 170.96 130.443C171.011 130.392 171.05 130.33 171.078 130.269C171.106 130.202 171.123 130.134 171.123 130.067C171.123 129.994 171.106 129.921 171.078 129.854C171.05 129.787 171.011 129.725 170.96 129.675C170.91 129.624 170.854 129.585 170.787 129.552C170.719 129.524 170.652 129.507 170.579 129.507C170.512 129.507 170.445 129.524 170.383 129.552C170.321 129.58 170.26 129.624 170.215 129.675C170.164 129.725 170.125 129.787 170.097 129.854C170.064 129.921 170.052 129.994 170.052 130.067Z" fill="#454545"/>
<path d="M172.306 134.925C172.306 134.493 172.384 134.107 172.536 133.776C172.687 133.446 172.889 133.166 173.141 132.936C173.393 132.712 173.679 132.538 174.004 132.42C174.329 132.303 174.66 132.247 175.002 132.247C175.372 132.247 175.714 132.297 176.039 132.398C176.359 132.499 176.639 132.65 176.874 132.852C177.11 133.053 177.295 133.311 177.429 133.625C177.564 133.939 177.631 134.309 177.631 134.734V139.592H175.888V134.964C175.888 134.55 175.815 134.253 175.658 134.068C175.501 133.883 175.288 133.787 174.997 133.787C174.739 133.787 174.531 133.883 174.369 134.073C174.206 134.264 174.116 134.55 174.094 134.925H172.306Z" fill="#454545"/>
<path d="M181.819 133.782C181.594 133.782 181.393 133.799 181.219 133.843C181.045 133.888 180.894 133.944 180.776 134.017C180.658 134.09 180.552 134.168 180.479 134.253C180.4 134.337 180.35 134.421 180.322 134.499C180.468 134.634 180.574 134.807 180.641 135.015C180.709 135.222 180.748 135.463 180.748 135.726V139.581H179.021V135.709C179.021 135.631 179.016 135.547 178.999 135.463C178.982 135.379 178.954 135.295 178.909 135.211C178.864 135.127 178.803 135.048 178.724 134.964C178.646 134.88 178.551 134.807 178.427 134.74C178.472 134.538 178.545 134.337 178.629 134.135C178.719 133.933 178.825 133.737 178.96 133.552C179.094 133.367 179.251 133.194 179.431 133.037C179.61 132.874 179.823 132.74 180.053 132.622C180.283 132.504 180.552 132.409 180.843 132.342C181.135 132.275 181.46 132.241 181.819 132.241C182.239 132.241 182.615 132.28 182.94 132.359C183.265 132.437 183.551 132.544 183.797 132.684C184.044 132.824 184.252 132.986 184.42 133.182C184.588 133.373 184.728 133.586 184.829 133.81C184.935 134.034 185.008 134.275 185.059 134.527C185.109 134.779 185.132 135.031 185.132 135.295V139.592H183.371V135.177C183.371 135.015 183.349 134.846 183.293 134.684C183.243 134.521 183.153 134.37 183.035 134.241C182.917 134.112 182.755 134.006 182.559 133.922C182.362 133.832 182.116 133.787 181.819 133.782Z" fill="#454545"/>
<path d="M181.185 131.384V129.4H182.721V130.017H186.051V131.384H181.185Z" fill="#454545"/>
<path d="M189.14 136.343H188.646V135.239H190.95V136.309L187.895 139.587H186.427V135.328C186.427 135.065 186.449 134.807 186.499 134.55C186.55 134.292 186.628 134.051 186.735 133.827C186.847 133.597 186.987 133.39 187.161 133.194C187.335 132.997 187.548 132.835 187.794 132.695C188.041 132.555 188.332 132.443 188.669 132.364C189.005 132.286 189.381 132.247 189.801 132.247C190.216 132.247 190.592 132.286 190.917 132.364C191.242 132.443 191.533 132.555 191.78 132.695C192.027 132.835 192.24 133.003 192.413 133.194C192.587 133.39 192.727 133.597 192.834 133.827C192.94 134.056 193.019 134.297 193.069 134.55C193.12 134.807 193.142 135.065 193.142 135.328V139.587H191.404V135.188C191.404 135.02 191.376 134.858 191.315 134.69C191.259 134.522 191.163 134.37 191.034 134.236C190.905 134.101 190.743 133.995 190.535 133.911C190.328 133.827 190.087 133.782 189.796 133.782C189.504 133.782 189.252 133.827 189.044 133.911C188.837 133.995 188.669 134.101 188.534 134.236C188.405 134.37 188.31 134.522 188.248 134.69C188.187 134.858 188.159 135.026 188.159 135.188V137.329L189.14 136.343Z" fill="#454545"/>
</svg>
