<svg width="334" height="56" viewBox="0 0 334 56" fill="none" xmlns="http://www.w3.org/2000/svg">
<path d="M42.5 40.4304H0.591304C0.295652 40.4304 0 40.2087 0 39.8391V38.5826C0 38.287 0.221739 37.9913 0.591304 37.9913H42.5739C42.8696 37.9913 43.1652 38.213 43.1652 38.5826V39.8391C43.0913 40.1348 42.8696 40.4304 42.5 40.4304Z" fill="#F9BC18"/>
<path d="M19.2912 45.3826H7.98254C7.68689 45.3826 7.39124 45.1609 7.39124 44.7913V43.5348C7.39124 43.2391 7.61297 42.9435 7.98254 42.9435H19.2912C19.5869 42.9435 19.8825 43.1652 19.8825 43.5348V44.7913C19.8086 45.1609 19.5869 45.3826 19.2912 45.3826Z" fill="#F9BC18"/>
<path d="M30.3043 45.3826H21.5087C21.213 45.3826 20.9174 45.1609 20.9174 44.7913V43.5348C20.9174 43.2391 21.1391 42.9435 21.5087 42.9435H30.3043C30.6 42.9435 30.8956 43.1652 30.8956 43.5348V44.7913C30.8217 45.1609 30.6 45.3826 30.3043 45.3826Z" fill="#F9BC18"/>
<path d="M30.5999 35.7739H14.7086C14.413 35.7739 14.1173 35.5522 14.1173 35.1826V33.9261C14.1173 33.6304 14.339 33.3348 14.7086 33.3348H30.5999C30.8956 33.3348 31.1912 33.5565 31.1912 33.9261V35.1826C31.1912 35.5522 30.8956 35.7739 30.5999 35.7739Z" fill="#F9BC18"/>
<path d="M40.8 35.7739H33.4087C33.113 35.7739 32.8174 35.5522 32.8174 35.1826V33.9261C32.8174 33.6304 33.0391 33.3348 33.4087 33.3348H40.8C41.0956 33.3348 41.3913 33.5565 41.3913 33.9261V35.1826C41.3913 35.5522 41.1696 35.7739 40.8 35.7739Z" fill="#F9BC18"/>
<path d="M18.3304 30.8217H9.90429C9.60864 30.8217 9.31299 30.6 9.31299 30.2304V28.9739C9.31299 28.6783 9.53473 28.3826 9.90429 28.3826H18.2565C18.5521 28.3826 18.8478 28.6043 18.8478 28.9739V30.2304C18.8478 30.6 18.626 30.8217 18.3304 30.8217Z" fill="#F9BC18"/>
<path d="M26.0173 21.3609H15.5956C15.2999 21.3609 15.0043 21.1391 15.0043 20.7696V19.513C15.0043 19.2174 15.226 18.9217 15.5956 18.9217H26.0173C26.313 18.9217 26.6086 19.1435 26.6086 19.513V20.7696C26.6086 21.0652 26.3869 21.3609 26.0173 21.3609Z" fill="#F9BC18"/>
<path d="M39.4695 21.3609H28.9739C28.6782 21.3609 28.3826 21.1391 28.3826 20.7696V19.513C28.3826 19.2174 28.6043 18.9217 28.9739 18.9217H39.3956C39.6913 18.9217 39.9869 19.1435 39.9869 19.513V20.7696C40.0608 21.0652 39.7652 21.3609 39.4695 21.3609Z" fill="#F9BC18"/>
<path d="M41.9825 16.4826H23.6521C23.3564 16.4826 23.0608 16.2609 23.0608 15.8913V14.6348C23.0608 14.3391 23.2825 14.0435 23.6521 14.0435H41.9825C42.2782 14.0435 42.5738 14.2652 42.5738 14.6348V15.8913C42.5738 16.2609 42.2782 16.4826 41.9825 16.4826Z" fill="#F9BC18"/>
<path d="M44.7913 26.0913H5.83911C5.54346 26.0913 5.2478 25.8696 5.2478 25.5V24.2435C5.2478 23.9478 5.46954 23.6522 5.83911 23.6522H44.7174C45.013 23.6522 45.3087 23.8739 45.3087 24.2435V25.5C45.3826 25.8696 45.0869 26.0913 44.7913 26.0913Z" fill="#F9BC18"/>
<path d="M37.3999 30.8217H20.8434C20.5477 30.8217 20.2521 30.6 20.2521 30.2304V28.9739C20.2521 28.6783 20.4738 28.3826 20.8434 28.3826H37.3999C37.6956 28.3826 37.9912 28.6043 37.9912 28.9739V30.2304C37.9912 30.6 37.7695 30.8217 37.3999 30.8217Z" fill="#F9BC18"/>
<path d="M29.8608 50.113H16.3347C16.0391 50.113 15.7434 49.8913 15.7434 49.5217V48.2652C15.7434 47.9696 15.9651 47.6739 16.3347 47.6739H29.9347C30.2304 47.6739 30.526 47.8956 30.526 48.2652V49.5217C30.4521 49.8174 30.1565 50.113 29.8608 50.113Z" fill="#F9BC18"/>
<path d="M71.9913 49.6696C72.7261 49.6696 73.3218 49.0739 73.3218 48.3391C73.3218 47.6044 72.7261 47.0087 71.9913 47.0087C71.2565 47.0087 70.6609 47.6044 70.6609 48.3391C70.6609 49.0739 71.2565 49.6696 71.9913 49.6696Z" fill="#F9BC18"/>
<path d="M36.9566 49.7435C37.7322 49.7435 38.3609 49.1147 38.3609 48.3391C38.3609 47.5635 37.7322 46.9348 36.9566 46.9348C36.181 46.9348 35.5522 47.5635 35.5522 48.3391C35.5522 49.1147 36.181 49.7435 36.9566 49.7435Z" fill="#F9BC18"/>
<path d="M99.487 13.6C98.6 13.5261 97.7131 13.6 96.9 13.6C92.3174 5.46957 83.5957 0 73.6174 0C65.8566 0 58.9087 3.25217 54.0305 8.5C52.7739 7.9087 51.3696 7.61304 49.9653 7.61304C44.8653 7.61304 40.7261 11.5304 40.2826 16.4826H58.9826C59.574 16.4826 60.0174 16.9261 60.0174 17.5174V41.0957C60.0174 41.3174 60.1653 41.4652 60.387 41.4652H60.7566C60.9783 41.4652 61.1261 41.3174 61.1261 41.0957V23.8C61.1261 23.4304 61.4218 23.1348 61.7913 23.1348H62.3826C62.6783 23.1348 62.9739 23.3565 62.9739 23.7261H71.8435C72.5826 23.7261 73.3218 24.0957 73.8392 24.687L80.1957 32.3C80.1957 32.3 82.1913 33.7044 82.1913 37.1044C82.1913 40.5044 82.1913 41.2435 82.1913 41.2435C82.1913 41.2435 83.0783 41.3174 83.0783 42.2783V44.7174C83.0783 45.087 83.0044 45.3826 82.7826 45.6783C82.5609 46.0478 82.2653 46.6391 82.2653 46.787C82.2653 47.0826 82.2653 47.7478 82.2653 47.7478C82.2653 47.7478 81.8957 48.2652 81.1566 48.2652C80.4174 48.2652 77.5348 48.2652 77.5348 48.2652H77.387C77.387 45.3087 75.0218 42.9435 72.0653 42.9435C69.1087 42.9435 66.7435 45.3087 66.7435 48.2652H42.5739C42.5739 45.2348 40.1348 42.7957 37.1044 42.7957C34.5174 42.7957 32.3739 44.5696 31.7826 47.0087C31.7826 47.0826 31.7826 47.2304 31.8566 47.3044L32.7435 48.3391V48.2652C32.7435 45.6783 34.9609 43.6087 37.6218 43.9044C39.6174 44.1261 41.2435 45.7522 41.4653 47.7478C41.6131 49.4478 40.8739 50.9261 39.6174 51.813C39.2479 52.0348 38.8044 52.1826 38.3609 52.1826H35.1826H32.8913H24.6131C23.8 52.1826 22.987 52.8478 22.9131 53.6609C22.7653 54.6957 23.5783 55.5826 24.5392 55.5826H98.3044C110.352 55.5826 120.183 45.5304 119.517 33.3348C118.926 22.6913 110.204 14.1174 99.487 13.6ZM72.287 52.9217C69.4783 53.0696 67.187 50.7783 67.4087 48.0435C67.5566 45.7522 69.4044 43.9044 71.6957 43.7565C74.5044 43.6087 76.7957 45.9 76.574 48.6348C76.4261 50.9261 74.5783 52.7739 72.287 52.9217Z" fill="#F9BC18"/>
<path d="M67.2609 35.6261V36.2174C67.2609 36.3652 67.1131 36.513 66.9652 36.513H64.0826C63.9348 36.513 63.787 36.3652 63.787 36.2174V35.6261C63.787 35.4783 63.9348 35.3304 64.0826 35.3304H66.9652C67.1131 35.2565 67.2609 35.4043 67.2609 35.6261Z" fill="#F9BC18"/>
<path d="M76.3521 31.7087H75.7608C75.3174 31.7087 75.0217 32.0783 75.0217 32.4478V34H63.4913C63.1217 34 62.826 33.7043 62.826 33.3348V25.9435C62.826 25.7217 62.9739 25.5739 63.1956 25.5739H70.9565C71.4 25.5739 71.9174 25.7957 72.213 26.1652L76.5739 31.413C76.5739 31.5609 76.5 31.7087 76.3521 31.7087Z" fill="#F9BC18"/>
<path d="M81.2303 43.0174V44.8652C81.2303 45.013 81.0825 45.1609 80.9347 45.087C80.2695 44.8652 79.0129 44.2 78.8651 42.7957C78.8651 42.6478 79.0129 42.5 79.1608 42.5H80.7869C81.0086 42.5 81.2303 42.7217 81.2303 43.0174Z" fill="#F9BC18"/>
<path d="M42.5 40.4304H0.591304C0.295652 40.4304 0 40.2087 0 39.8391V38.5826C0 38.287 0.221739 37.9913 0.591304 37.9913H42.5739C42.8696 37.9913 43.1652 38.213 43.1652 38.5826V39.8391C43.0913 40.1348 42.8696 40.4304 42.5 40.4304Z" fill="white"/>
<path d="M19.2912 45.3826H7.98254C7.68689 45.3826 7.39124 45.1609 7.39124 44.7913V43.5348C7.39124 43.2391 7.61297 42.9435 7.98254 42.9435H19.2912C19.5869 42.9435 19.8825 43.1652 19.8825 43.5348V44.7913C19.8086 45.1609 19.5869 45.3826 19.2912 45.3826Z" fill="white"/>
<path d="M30.3043 45.3826H21.5087C21.213 45.3826 20.9174 45.1609 20.9174 44.7913V43.5348C20.9174 43.2391 21.1391 42.9435 21.5087 42.9435H30.3043C30.6 42.9435 30.8956 43.1652 30.8956 43.5348V44.7913C30.8217 45.1609 30.6 45.3826 30.3043 45.3826Z" fill="white"/>
<path d="M30.5999 35.7739H14.7086C14.413 35.7739 14.1173 35.5522 14.1173 35.1826V33.9261C14.1173 33.6304 14.339 33.3348 14.7086 33.3348H30.5999C30.8956 33.3348 31.1912 33.5565 31.1912 33.9261V35.1826C31.1912 35.5522 30.8956 35.7739 30.5999 35.7739Z" fill="white"/>
<path d="M40.8 35.7739H33.4087C33.113 35.7739 32.8174 35.5522 32.8174 35.1826V33.9261C32.8174 33.6304 33.0391 33.3348 33.4087 33.3348H40.8C41.0956 33.3348 41.3913 33.5565 41.3913 33.9261V35.1826C41.3913 35.5522 41.1696 35.7739 40.8 35.7739Z" fill="white"/>
<path d="M18.3304 30.8217H9.90429C9.60864 30.8217 9.31299 30.6 9.31299 30.2304V28.9739C9.31299 28.6783 9.53473 28.3826 9.90429 28.3826H18.2565C18.5521 28.3826 18.8478 28.6043 18.8478 28.9739V30.2304C18.8478 30.6 18.626 30.8217 18.3304 30.8217Z" fill="white"/>
<path d="M26.0173 21.3609H15.5956C15.2999 21.3609 15.0043 21.1391 15.0043 20.7696V19.513C15.0043 19.2174 15.226 18.9217 15.5956 18.9217H26.0173C26.313 18.9217 26.6086 19.1435 26.6086 19.513V20.7696C26.6086 21.0652 26.3869 21.3609 26.0173 21.3609Z" fill="white"/>
<path d="M39.4695 21.3609H28.9739C28.6782 21.3609 28.3826 21.1391 28.3826 20.7696V19.513C28.3826 19.2174 28.6043 18.9217 28.9739 18.9217H39.3956C39.6913 18.9217 39.9869 19.1435 39.9869 19.513V20.7696C40.0608 21.0652 39.7652 21.3609 39.4695 21.3609Z" fill="white"/>
<path d="M41.9825 16.4826H23.6521C23.3564 16.4826 23.0608 16.2609 23.0608 15.8913V14.6348C23.0608 14.3391 23.2825 14.0435 23.6521 14.0435H41.9825C42.2782 14.0435 42.5738 14.2652 42.5738 14.6348V15.8913C42.5738 16.2609 42.2782 16.4826 41.9825 16.4826Z" fill="white"/>
<path d="M44.7913 26.0913H5.83911C5.54346 26.0913 5.2478 25.8696 5.2478 25.5V24.2435C5.2478 23.9478 5.46954 23.6522 5.83911 23.6522H44.7174C45.013 23.6522 45.3087 23.8739 45.3087 24.2435V25.5C45.3826 25.8696 45.0869 26.0913 44.7913 26.0913Z" fill="white"/>
<path d="M37.3999 30.8217H20.8434C20.5477 30.8217 20.2521 30.6 20.2521 30.2304V28.9739C20.2521 28.6783 20.4738 28.3826 20.8434 28.3826H37.3999C37.6956 28.3826 37.9912 28.6043 37.9912 28.9739V30.2304C37.9912 30.6 37.7695 30.8217 37.3999 30.8217Z" fill="white"/>
<path d="M29.8608 50.113H16.3347C16.0391 50.113 15.7434 49.8913 15.7434 49.5217V48.2652C15.7434 47.9696 15.9651 47.6739 16.3347 47.6739H29.9347C30.2304 47.6739 30.526 47.8956 30.526 48.2652V49.5217C30.4521 49.8174 30.1565 50.113 29.8608 50.113Z" fill="white"/>
<path d="M71.9913 49.6696C72.7261 49.6696 73.3218 49.0739 73.3218 48.3391C73.3218 47.6044 72.7261 47.0087 71.9913 47.0087C71.2565 47.0087 70.6609 47.6044 70.6609 48.3391C70.6609 49.0739 71.2565 49.6696 71.9913 49.6696Z" fill="white"/>
<path d="M36.9566 49.7435C37.7322 49.7435 38.3609 49.1147 38.3609 48.3391C38.3609 47.5635 37.7322 46.9348 36.9566 46.9348C36.181 46.9348 35.5522 47.5635 35.5522 48.3391C35.5522 49.1147 36.181 49.7435 36.9566 49.7435Z" fill="white"/>
<path d="M99.487 13.6C98.6 13.5261 97.7131 13.6 96.9 13.6C92.3174 5.46957 83.5957 0 73.6174 0C65.8566 0 58.9087 3.25217 54.0305 8.5C52.7739 7.9087 51.3696 7.61304 49.9653 7.61304C44.8653 7.61304 40.7261 11.5304 40.2826 16.4826H58.9826C59.574 16.4826 60.0174 16.9261 60.0174 17.5174V41.0957C60.0174 41.3174 60.1653 41.4652 60.387 41.4652H60.7566C60.9783 41.4652 61.1261 41.3174 61.1261 41.0957V23.8C61.1261 23.4304 61.4218 23.1348 61.7913 23.1348H62.3826C62.6783 23.1348 62.9739 23.3565 62.9739 23.7261H71.8435C72.5826 23.7261 73.3218 24.0957 73.8392 24.687L80.1957 32.3C80.1957 32.3 82.1913 33.7044 82.1913 37.1044C82.1913 40.5044 82.1913 41.2435 82.1913 41.2435C82.1913 41.2435 83.0783 41.3174 83.0783 42.2783V44.7174C83.0783 45.087 83.0044 45.3826 82.7826 45.6783C82.5609 46.0478 82.2653 46.6391 82.2653 46.787C82.2653 47.0826 82.2653 47.7478 82.2653 47.7478C82.2653 47.7478 81.8957 48.2652 81.1566 48.2652C80.4174 48.2652 77.5348 48.2652 77.5348 48.2652H77.387C77.387 45.3087 75.0218 42.9435 72.0653 42.9435C69.1087 42.9435 66.7435 45.3087 66.7435 48.2652H42.5739C42.5739 45.2348 40.1348 42.7957 37.1044 42.7957C34.5174 42.7957 32.3739 44.5696 31.7826 47.0087C31.7826 47.0826 31.7826 47.2304 31.8566 47.3044L32.7435 48.3391V48.2652C32.7435 45.6783 34.9609 43.6087 37.6218 43.9044C39.6174 44.1261 41.2435 45.7522 41.4653 47.7478C41.6131 49.4478 40.8739 50.9261 39.6174 51.813C39.2479 52.0348 38.8044 52.1826 38.3609 52.1826H35.1826H32.8913H24.6131C23.8 52.1826 22.987 52.8478 22.9131 53.6609C22.7653 54.6957 23.5783 55.5826 24.5392 55.5826H98.3044C110.352 55.5826 120.183 45.5304 119.517 33.3348C118.926 22.6913 110.204 14.1174 99.487 13.6ZM72.287 52.9217C69.4783 53.0696 67.187 50.7783 67.4087 48.0435C67.5566 45.7522 69.4044 43.9044 71.6957 43.7565C74.5044 43.6087 76.7957 45.9 76.574 48.6348C76.4261 50.9261 74.5783 52.7739 72.287 52.9217Z" fill="white"/>
<path d="M67.2609 35.6261V36.2174C67.2609 36.3652 67.1131 36.513 66.9652 36.513H64.0826C63.9348 36.513 63.787 36.3652 63.787 36.2174V35.6261C63.787 35.4783 63.9348 35.3304 64.0826 35.3304H66.9652C67.1131 35.2565 67.2609 35.4043 67.2609 35.6261Z" fill="white"/>
<path d="M76.3521 31.7087H75.7608C75.3174 31.7087 75.0217 32.0783 75.0217 32.4478V34H63.4913C63.1217 34 62.826 33.7043 62.826 33.3348V25.9435C62.826 25.7217 62.9739 25.5739 63.1956 25.5739H70.9565C71.4 25.5739 71.9174 25.7957 72.213 26.1652L76.5739 31.413C76.5739 31.5609 76.5 31.7087 76.3521 31.7087Z" fill="white"/>
<path d="M81.2303 43.0174V44.8652C81.2303 45.013 81.0825 45.1609 80.9347 45.087C80.2695 44.8652 79.0129 44.2 78.8651 42.7957C78.8651 42.6478 79.0129 42.5 79.1608 42.5H80.7869C81.0086 42.5 81.2303 42.7217 81.2303 43.0174Z" fill="white"/>
<path d="M154.922 14.1174V17.3696H139.843C139.4 17.3696 139.104 17.5174 138.809 17.813C138.513 18.1087 138.365 18.4783 138.365 18.8478V25.8696C138.365 26.2391 138.513 26.6087 138.809 26.9043C139.104 27.2 139.474 27.3478 139.843 27.3478H154.922V30.6H139.326C138.661 30.6 137.996 30.4522 137.404 30.2304C136.813 29.9348 136.296 29.6391 135.778 29.1956C135.335 28.7522 134.965 28.2348 134.67 27.5696C134.374 26.9783 134.226 26.313 134.226 25.5739V19.1435C134.226 18.4783 134.374 17.813 134.596 17.1478C134.891 16.5565 135.261 16.0391 135.704 15.5217C136.148 15.0783 136.665 14.7087 137.33 14.413C137.922 14.1174 138.587 14.0435 139.252 14.0435H154.922V14.1174Z" fill="#454545"/>
<path d="M171.848 14.1174L181.309 30.6H176.8L168.965 16.8522L164.456 24.8348H171.33L173.178 28.087H162.609L161.13 30.6H156.622L166.082 14.1174H171.848V14.1174Z" fill="#454545"/>
<path d="M200.822 14.1174C201.413 14.1174 201.93 14.1913 202.448 14.413C202.965 14.6348 203.409 14.8565 203.778 15.2261C204.148 15.5956 204.443 15.9652 204.665 16.4826C204.887 17 204.961 17.5174 204.961 18.1087V20.4739C204.961 20.7696 204.887 21.0652 204.813 21.4348C204.739 21.7304 204.591 22.0261 204.369 22.3217C204.148 22.6174 203.926 22.8391 203.704 22.987C203.409 23.2087 203.187 23.2826 202.891 23.3565C203.556 23.5043 204.074 23.8 204.443 24.2435C204.813 24.7609 205.035 25.2783 205.035 25.9435V30.6739H200.896V26.1652C200.896 25.7956 200.748 25.5739 200.526 25.3522C200.304 25.1304 200.009 24.9826 199.713 24.9826H191.509L188.183 21.7304H199.639C200.009 21.7304 200.23 21.6565 200.526 21.4348C200.748 21.213 200.896 20.9913 200.896 20.6217V18.4783C200.896 18.1087 200.748 17.887 200.526 17.6652C200.304 17.4435 200.009 17.3696 199.639 17.3696H187.222V30.6H183.083V14.1174H200.822Z" fill="#454545"/>
<path d="M228.835 14.1174V17.3696H213.313C212.869 17.3696 212.574 17.5174 212.278 17.813C211.983 18.1087 211.835 18.4783 211.835 18.8478V25.7956C211.835 26.1652 211.983 26.5348 212.278 26.8304C212.574 27.1261 212.943 27.2739 213.313 27.2739H225.435V23.9478H218.339L215.013 20.6956H229.574V30.6H212.722C212.056 30.6 211.391 30.4522 210.8 30.2304C210.209 29.9348 209.691 29.6391 209.174 29.1217C208.73 28.6783 208.361 28.1609 208.065 27.4956C207.769 26.9043 207.696 26.2391 207.696 25.5V19.1435C207.696 18.4783 207.843 17.813 208.065 17.2217C208.361 16.6304 208.73 16.0391 209.174 15.5956C209.617 15.1522 210.135 14.7826 210.8 14.487C211.391 14.1913 212.056 14.1174 212.722 14.1174H228.835V14.1174Z" fill="#454545"/>
<path d="M249.235 14.1174C249.9 14.1174 250.565 14.2652 251.156 14.487C251.748 14.7826 252.265 15.1522 252.782 15.5956C253.226 16.0391 253.595 16.5565 253.891 17.2217C254.187 17.813 254.261 18.4783 254.261 19.1435V25.5C254.261 26.2391 254.113 26.8304 253.891 27.4956C253.595 28.087 253.226 28.6043 252.782 29.1217C252.339 29.5652 251.822 29.9348 251.156 30.2304C250.565 30.5261 249.9 30.6 249.235 30.6H237.409C236.743 30.6 236.078 30.4522 235.487 30.2304C234.895 29.9348 234.378 29.6391 233.861 29.1217C233.417 28.6783 233.048 28.1609 232.752 27.4956C232.456 26.9043 232.382 26.2391 232.382 25.5V19.1435C232.382 18.4783 232.53 17.813 232.752 17.2217C233.048 16.6304 233.417 16.0391 233.861 15.5956C234.304 15.1522 234.822 14.7826 235.487 14.487C236.078 14.1913 236.743 14.1174 237.409 14.1174H249.235V14.1174ZM250.122 18.8478C250.122 18.4783 249.974 18.1087 249.678 17.813C249.382 17.5174 249.013 17.3696 248.643 17.3696H238C237.556 17.3696 237.261 17.5174 236.965 17.813C236.669 18.1087 236.522 18.4783 236.522 18.8478V25.8696C236.522 26.2391 236.669 26.6087 236.965 26.9043C237.261 27.2 237.63 27.3478 238 27.3478H248.643C249.087 27.3478 249.382 27.2 249.678 26.9043C249.974 26.6087 250.122 26.2391 250.122 25.8696V18.8478Z" fill="#454545"/>
<path d="M261.209 14.1174V27.3478H276.287V30.6H257.069V14.1174H261.209Z" fill="#454545"/>
<path d="M282.791 14.1174V30.6H278.652V14.1174H282.791Z" fill="#454545"/>
<path d="M308.217 14.1174V30.6H302.6L290.183 17.6652V30.6H286.043V14.1174H291.661L304.152 27.0522V14.1174H308.217Z" fill="#454545"/>
<path d="M315.535 14.1174V20.8435L327.065 14.1174H333.2L319.378 22.3956L333.2 30.6739H326.696L315.535 24.0217V30.6739H311.396V14.1174H315.535Z" fill="#454545"/>
<path d="M138.143 45.9739C138.439 45.9739 138.661 45.9 138.809 45.8261C138.957 45.7522 139.104 45.6043 139.252 45.4565C139.326 45.3087 139.4 45.1609 139.474 45.013C139.548 44.8652 139.548 44.6435 139.548 44.4957V40.0609H141.322V44.3478C141.322 44.6435 141.322 44.8652 141.248 45.1609C141.174 45.4565 141.174 45.6783 141.026 45.9C140.952 46.1217 140.804 46.3435 140.657 46.5652C140.509 46.787 140.287 46.9348 140.065 47.0826C139.843 47.2304 139.548 47.3043 139.252 47.4522C138.957 47.5261 138.587 47.6 138.143 47.6C137.7 47.6 137.33 47.5261 137.035 47.4522C136.739 47.3783 136.443 47.2304 136.222 47.0826C136 46.9348 135.778 46.787 135.63 46.5652C135.483 46.3435 135.335 46.1217 135.261 45.9C135.187 45.6783 135.113 45.3826 135.039 45.1609C134.965 44.9391 134.965 44.6435 134.965 44.3478V40.0609H136.739V44.4957C136.739 44.6435 136.739 44.8652 136.813 45.013C136.887 45.1609 136.961 45.3087 137.035 45.4565C137.109 45.6043 137.257 45.6783 137.478 45.8261C137.626 45.9739 137.848 45.9739 138.143 45.9739Z" fill="#454545"/>
<path d="M143.983 44.7174C143.983 45.1609 144.131 45.5304 144.352 45.6783C144.574 45.9 144.87 45.9739 145.239 45.9739C145.313 45.9739 145.461 45.9739 145.535 45.9739C145.683 45.9739 145.757 45.9 145.831 45.8261C145.904 45.7522 145.978 45.6783 146.052 45.6043C146.126 45.5304 146.126 45.3826 146.126 45.2348C146.126 45.1609 146.126 45.013 146.052 44.9391C145.978 44.8652 145.904 44.7913 145.831 44.7174C145.757 44.6435 145.609 44.5696 145.387 44.4957C145.239 44.4217 145.017 44.3478 144.796 44.2739C144.426 44.1261 144.131 43.9783 143.835 43.9043C143.539 43.7565 143.244 43.6087 143.096 43.4609C142.874 43.313 142.726 43.0913 142.578 42.8696C142.431 42.6478 142.357 42.3522 142.357 42.0565C142.357 41.8348 142.357 41.5391 142.431 41.3913C142.504 41.1696 142.578 41.0217 142.726 40.8739C142.874 40.7261 143.022 40.5783 143.17 40.5043C143.317 40.4304 143.539 40.2826 143.687 40.2087C143.909 40.1348 144.057 40.0609 144.278 40.0609C144.5 40.0609 144.722 39.987 144.87 39.987C145.239 39.987 145.609 40.0609 145.978 40.1348C146.348 40.2087 146.644 40.3565 146.865 40.5783C147.087 40.8 147.309 41.0217 147.457 41.3913C147.604 41.7609 147.678 42.1304 147.678 42.6478H145.978C145.978 42.4261 145.978 42.2783 145.904 42.1304C145.831 41.9826 145.757 41.8348 145.683 41.7609C145.609 41.687 145.461 41.613 145.387 41.5391C145.239 41.4652 145.165 41.4652 145.017 41.4652C144.944 41.4652 144.796 41.4652 144.722 41.4652C144.648 41.4652 144.5 41.5391 144.426 41.5391C144.352 41.613 144.278 41.613 144.204 41.687C144.131 41.7609 144.131 41.8348 144.131 41.9826C144.131 42.0565 144.131 42.1304 144.204 42.2043C144.278 42.2783 144.352 42.3522 144.426 42.4261C144.5 42.5 144.648 42.5739 144.796 42.6478C144.944 42.7217 145.165 42.7957 145.387 42.8696C145.904 43.0174 146.274 43.2391 146.57 43.387C146.865 43.5348 147.161 43.7565 147.309 43.9043C147.457 44.0522 147.604 44.2739 147.678 44.4957C147.752 44.7174 147.752 44.9391 147.752 45.1609C147.752 45.6043 147.678 45.9739 147.531 46.1957C147.383 46.4913 147.161 46.713 146.939 46.9348C146.717 47.0826 146.348 47.2304 146.052 47.3043C145.683 47.3783 145.313 47.4522 144.944 47.4522C144.574 47.4522 144.204 47.3783 143.835 47.3043C143.465 47.2304 143.17 47.0087 142.948 46.787C142.652 46.5652 142.504 46.2696 142.283 45.9C142.135 45.5304 142.061 45.087 141.987 44.5696H143.983V44.7174Z" fill="#454545"/>
<path d="M142.283 39.1L142.948 37.6957H147.678V39.1H142.283Z" fill="#454545"/>
<path d="M151.596 44.1261V42.2043H153.148V42.7217H153.739V40.0609H155.513V42.7217H156.104V44.0522H155.513V44.3478C155.513 44.6435 155.513 44.8652 155.439 45.1609C155.365 45.4565 155.291 45.6783 155.217 45.9C155.144 46.1217 154.996 46.3435 154.848 46.5652C154.7 46.787 154.478 46.9348 154.257 47.0826C154.035 47.2304 153.739 47.3043 153.37 47.4522C153.074 47.5261 152.63 47.6 152.261 47.6C151.817 47.6 151.448 47.5261 151.078 47.4522C150.783 47.3783 150.487 47.2304 150.191 47.0826C149.97 46.9348 149.748 46.787 149.6 46.5652C149.452 46.3435 149.304 46.1217 149.23 45.9C149.157 45.6783 149.083 45.3826 149.009 45.1609C148.935 44.9391 148.935 44.6435 148.935 44.3478V40.0609H150.709V44.4957C150.709 44.6435 150.709 44.8652 150.783 45.013C150.857 45.1609 150.93 45.3087 151.004 45.4565C151.152 45.6043 151.3 45.6783 151.448 45.8261C151.67 45.9 151.891 45.9739 152.187 45.9739C152.483 45.9739 152.704 45.9 152.926 45.8261C153.148 45.7522 153.296 45.6043 153.37 45.4565C153.517 45.3087 153.591 45.1609 153.591 45.013C153.665 44.8652 153.665 44.6435 153.665 44.4957V44.0522H151.596V44.1261Z" fill="#454545"/>
<path d="M151.596 39.1V37.1043H153.148V37.6956H156.548V39.1H151.596Z" fill="#454545"/>
<path d="M158.617 40.1348V40.8739C158.765 40.7261 158.913 40.5783 159.061 40.5043C159.209 40.3565 159.357 40.2826 159.504 40.2087C159.652 40.1348 159.8 40.0609 160.022 40.0609C160.17 39.987 160.391 39.987 160.613 39.987C161.13 39.987 161.574 40.0609 161.87 40.2087C162.239 40.3565 162.461 40.5043 162.683 40.8C162.904 41.0217 163.052 41.3174 163.126 41.687C163.2 42.0565 163.274 42.4261 163.274 42.7957V47.4522H161.5V42.6478C161.5 42.5 161.5 42.3522 161.426 42.2043C161.352 42.0565 161.278 41.9826 161.204 41.9087C161.13 41.8348 160.983 41.7609 160.835 41.687C160.687 41.613 160.539 41.613 160.391 41.613C160.096 41.613 159.874 41.687 159.652 41.7609C159.43 41.8348 159.283 41.9826 159.135 42.1304C158.987 42.2783 158.913 42.5 158.839 42.7217C158.765 42.9435 158.765 43.1652 158.765 43.4609V47.5261H156.991V40.2087H158.617V40.1348Z" fill="#454545"/>
<path d="M169.187 47.3783H167.413V43.0913C167.413 42.7957 167.413 42.5739 167.487 42.2783C167.561 42.0565 167.635 41.7609 167.709 41.5391C167.783 41.3174 167.93 41.0957 168.078 40.8739C168.226 40.6522 168.448 40.5044 168.67 40.3565C168.891 40.2087 169.187 40.1348 169.557 39.987C169.852 39.9131 170.296 39.8391 170.665 39.8391C171.109 39.8391 171.478 39.9131 171.774 39.987C172.07 40.0609 172.365 40.2087 172.587 40.3565C172.809 40.5044 173.03 40.6522 173.178 40.8739C173.326 41.0957 173.474 41.3174 173.548 41.5391C173.622 41.7609 173.696 42.0565 173.77 42.2783C173.844 42.5739 173.844 42.7957 173.844 43.0913V47.3783H172.217V42.9435C172.217 42.7957 172.217 42.5739 172.144 42.4261C172.07 42.2783 171.996 42.1304 171.848 41.9826C171.7 41.8348 171.552 41.7609 171.404 41.6131C171.257 41.4652 170.961 41.4652 170.739 41.4652C170.517 41.4652 170.222 41.5391 170.074 41.6131C169.926 41.687 169.704 41.8348 169.63 41.9826C169.483 42.1304 169.409 42.2783 169.335 42.4261C169.261 42.5739 169.261 42.7957 169.261 42.9435V43.6087C169.409 43.4609 169.557 43.387 169.704 43.2391C169.852 43.1652 170 43.0174 170.148 43.0174C170.296 42.9435 170.517 42.8696 170.665 42.8696C170.887 42.8696 171.109 42.7957 171.33 42.7957V44.3478C170.961 44.3478 170.665 44.4218 170.37 44.4957C170.074 44.5696 169.926 44.7174 169.704 44.9391C169.557 45.087 169.409 45.3087 169.335 45.6044C169.261 45.8261 169.187 46.1217 169.187 46.4174V47.3783V47.3783Z" fill="#454545"/>
<path d="M174.804 42.6478C174.804 42.2044 174.878 41.8348 175.026 41.4652C175.174 41.0957 175.396 40.8739 175.617 40.5783C175.839 40.3565 176.135 40.2087 176.504 40.0609C176.874 39.9131 177.17 39.9131 177.539 39.9131C177.909 39.9131 178.278 39.987 178.574 40.0609C178.87 40.1348 179.165 40.2826 179.387 40.5044C179.609 40.7261 179.831 40.9478 179.978 41.3174C180.126 41.6131 180.2 41.9826 180.2 42.4261V47.3783H178.426V42.7218C178.426 42.2783 178.352 41.9826 178.204 41.8348C178.057 41.6131 177.835 41.5391 177.539 41.5391C177.244 41.5391 177.096 41.6131 176.874 41.8348C176.726 42.0565 176.652 42.3522 176.578 42.7218H174.804V42.6478Z" fill="#454545"/>
<path d="M182.935 44.7174C182.935 45.1609 183.083 45.5304 183.304 45.6783C183.526 45.9 183.822 45.9739 184.191 45.9739C184.265 45.9739 184.413 45.9739 184.487 45.9739C184.635 45.9739 184.709 45.9 184.783 45.8261C184.857 45.7522 184.931 45.6783 185.004 45.6043C185.078 45.5304 185.078 45.3826 185.078 45.2348C185.078 45.1609 185.078 45.013 185.004 44.9391C184.931 44.8652 184.857 44.7913 184.783 44.7174C184.709 44.6435 184.561 44.5696 184.339 44.4957C184.191 44.4217 183.97 44.3478 183.748 44.2739C183.378 44.1261 183.083 43.9783 182.787 43.9043C182.491 43.7565 182.196 43.6087 182.048 43.4609C181.826 43.313 181.678 43.0913 181.531 42.8696C181.383 42.6478 181.309 42.3522 181.309 42.0565C181.309 41.8348 181.309 41.5391 181.383 41.3913C181.457 41.1696 181.531 41.0217 181.678 40.8739C181.826 40.7261 181.974 40.5783 182.122 40.5043C182.27 40.4304 182.491 40.2826 182.639 40.2087C182.861 40.1348 183.009 40.0609 183.231 40.0609C183.452 40.0609 183.674 39.987 183.822 39.987C184.191 39.987 184.561 40.0609 184.931 40.1348C185.3 40.2087 185.596 40.3565 185.817 40.5783C186.039 40.8 186.261 41.0217 186.409 41.3913C186.557 41.7609 186.631 42.1304 186.631 42.6478H184.931C184.931 42.4261 184.931 42.2783 184.857 42.1304C184.783 41.9826 184.709 41.8348 184.635 41.7609C184.561 41.687 184.413 41.613 184.339 41.5391C184.191 41.4652 184.117 41.4652 183.97 41.4652C183.896 41.4652 183.748 41.4652 183.674 41.4652C183.6 41.4652 183.452 41.5391 183.378 41.5391C183.304 41.613 183.231 41.613 183.157 41.687C183.083 41.7609 183.083 41.8348 183.083 41.9826C183.083 42.0565 183.083 42.1304 183.157 42.2043C183.231 42.2783 183.304 42.3522 183.378 42.4261C183.452 42.5 183.6 42.5739 183.748 42.6478C183.896 42.7217 184.117 42.7957 184.339 42.8696C184.857 43.0174 185.226 43.2391 185.522 43.387C185.817 43.5348 186.113 43.7565 186.261 43.9043C186.409 44.1261 186.557 44.2739 186.631 44.4957C186.704 44.7174 186.704 44.9391 186.704 45.1609C186.704 45.6043 186.631 45.9739 186.483 46.1957C186.335 46.4913 186.113 46.713 185.891 46.9348C185.67 47.0826 185.3 47.2304 185.004 47.3043C184.635 47.3783 184.265 47.4522 183.896 47.4522C183.526 47.4522 183.157 47.3783 182.787 47.3043C182.417 47.2304 182.122 47.0087 181.9 46.787C181.604 46.5652 181.457 46.2696 181.235 45.9C181.087 45.5304 181.013 45.087 180.939 44.5696H182.935V44.7174Z" fill="#454545"/>
<path d="M186.926 37.8435C186.704 37.8435 186.557 37.8435 186.335 37.9174C186.187 37.9913 186.039 38.0652 185.891 38.1391C185.743 38.213 185.67 38.3609 185.67 38.5087C185.596 38.6565 185.596 38.8043 185.596 39.0261H183.896C183.896 38.6565 183.97 38.287 184.117 37.9913C184.265 37.6957 184.487 37.4 184.709 37.1783C185.004 36.9565 185.3 36.8087 185.67 36.6609C186.039 36.513 186.409 36.513 186.852 36.513V37.8435H186.926Z" fill="#454545"/>
<path d="M188.404 38.8783C188.404 38.7304 188.404 38.6565 188.331 38.5087C188.257 38.3609 188.183 38.287 188.109 38.213C188.035 38.1391 187.887 38.0652 187.813 37.9913C187.665 37.9174 187.517 37.9174 187.37 37.9174L187.739 36.587H191.435L192.026 37.9913H189.735C189.809 38.0652 189.883 38.1391 189.883 38.213C189.957 38.287 189.957 38.3609 190.031 38.4348C190.031 38.5087 190.104 38.6565 190.104 38.7304C190.104 38.8044 190.104 38.9522 190.104 39.0261V45.9739H190.844V47.3783H188.404V38.8783V38.8783Z" fill="#454545"/>
<path d="M194.761 41.5391C194.539 41.5391 194.317 41.5391 194.17 41.613C194.022 41.687 193.874 41.687 193.726 41.7609C193.578 41.8348 193.504 41.9087 193.43 41.9826C193.357 42.0565 193.283 42.1304 193.283 42.2043C193.43 42.3522 193.504 42.5 193.578 42.7217C193.652 42.9435 193.652 43.1652 193.652 43.4609V47.3783H191.878V43.4609C191.878 43.387 191.878 43.313 191.878 43.2391C191.878 43.1652 191.804 43.0913 191.804 43.0174C191.73 42.9435 191.73 42.8696 191.583 42.7957C191.509 42.7217 191.435 42.6478 191.287 42.5739C191.361 42.3522 191.435 42.1304 191.509 41.9826C191.583 41.7609 191.73 41.613 191.878 41.3913C192.026 41.1696 192.174 41.0217 192.322 40.8739C192.544 40.7261 192.691 40.5783 192.987 40.4304C193.209 40.2826 193.504 40.2087 193.8 40.1348C194.096 40.0609 194.391 40.0609 194.761 40.0609C195.204 40.0609 195.574 40.1348 195.87 40.2087C196.165 40.2826 196.461 40.4304 196.757 40.5043C196.978 40.6522 197.2 40.8 197.422 41.0217C197.57 41.2435 197.717 41.4652 197.865 41.687C197.939 41.9087 198.013 42.1304 198.087 42.4261C198.161 42.6478 198.161 42.9435 198.161 43.2391V47.6H196.387V43.0913C196.387 42.9435 196.387 42.7217 196.313 42.5739C196.239 42.4261 196.165 42.2783 196.017 42.1304C195.87 41.9826 195.722 41.9087 195.5 41.8348C195.352 41.5391 195.057 41.5391 194.761 41.5391Z" fill="#454545"/>
<path d="M194.465 39.1V37.9174H193.874V36.7348H195.796V37.8435C195.943 37.8435 196.165 37.8435 196.313 37.7696C196.461 37.6957 196.609 37.6217 196.757 37.5478C196.904 37.4739 196.978 37.3261 197.052 37.1783C197.126 37.0304 197.126 36.8826 197.126 36.8087H198.53C198.53 37.1044 198.457 37.4 198.383 37.6957C198.235 37.9913 198.087 38.213 197.865 38.4348C197.643 38.6565 197.348 38.8044 196.978 38.9522C196.609 39.1 196.165 39.1739 195.722 39.1739H194.465V39.1Z" fill="#454545"/>
<path d="M206.735 44.0522C206.513 44.2 206.365 44.2739 206.144 44.3478C205.922 44.4217 205.774 44.4218 205.626 44.4957C205.404 44.5696 205.257 44.5696 205.035 44.6435C204.813 44.7174 204.665 44.7174 204.517 44.7913C204.37 44.8652 204.222 44.9391 204.148 45.0131C204.074 45.087 204 45.2348 204 45.3826C204 45.5304 204 45.6783 204.074 45.7522C204.148 45.8261 204.222 45.9739 204.296 45.9739C204.37 46.0478 204.517 46.0478 204.665 46.1218C204.813 46.1218 204.887 46.1957 205.035 46.1957C205.183 46.1957 205.33 46.1957 205.478 46.1218C205.626 46.1218 205.848 46.0478 205.996 45.9739V47.3044C205.774 47.3783 205.552 47.4522 205.33 47.4522C205.109 47.4522 204.961 47.5261 204.739 47.5261C204.37 47.5261 204.074 47.4522 203.778 47.3783C203.483 47.3044 203.187 47.1565 202.965 47.0087C202.744 46.8609 202.522 46.6391 202.374 46.3435C202.226 46.0478 202.152 45.7522 202.152 45.3087C202.152 45.087 202.152 44.7913 202.226 44.6435C202.3 44.4218 202.374 44.2739 202.522 44.1261C202.67 43.9783 202.817 43.8304 202.965 43.7565C203.187 43.6087 203.335 43.5348 203.63 43.4609C203.852 43.387 204.148 43.3131 204.444 43.2391C204.739 43.1652 205.035 43.0913 205.33 43.0174C205.478 43.0174 205.7 42.9435 205.848 42.8696C205.996 42.7957 206.144 42.7957 206.291 42.7217C206.439 42.6478 206.513 42.5739 206.587 42.5C206.661 42.4261 206.735 42.3522 206.735 42.2044C206.735 42.0565 206.735 41.9087 206.661 41.7609C206.587 41.687 206.513 41.6131 206.365 41.5391C206.217 41.4652 206.144 41.4652 205.996 41.4652C205.848 41.4652 205.7 41.4652 205.552 41.4652C205.33 41.4652 205.183 41.4652 205.035 41.5391C204.887 41.5391 204.739 41.6131 204.591 41.7609C204.444 41.8348 204.37 41.9826 204.296 42.1304C204.222 42.2783 204.148 42.5 204.148 42.7217H202.374C202.374 42.3522 202.448 42.0565 202.522 41.7609C202.596 41.4652 202.744 41.2435 202.891 41.0217C203.039 40.8 203.187 40.6522 203.409 40.5044C203.63 40.3565 203.852 40.2826 204.074 40.1348C204.296 40.0609 204.591 39.987 204.813 39.9131C205.109 39.8391 205.33 39.8391 205.626 39.8391C205.848 39.8391 206.07 39.8391 206.291 39.9131C206.513 39.9131 206.735 39.987 206.957 40.0609C207.178 40.1348 207.4 40.2087 207.548 40.3565C207.696 40.5044 207.917 40.5783 208.065 40.8C208.213 40.9478 208.287 41.1696 208.361 41.3913C208.435 41.6131 208.509 41.9087 208.509 42.2044V47.3783H206.735V44.0522V44.0522Z" fill="#454545"/>
<path d="M202.078 39.1L202.743 37.6957H208.509V39.1H202.078Z" fill="#454545"/>
<path d="M205.626 36.587V35.4044H205.035V34.2217H206.957V35.3304C207.178 35.3304 207.326 35.3304 207.474 35.2565C207.622 35.1826 207.77 35.1087 207.917 35.0348C208.065 34.9609 208.139 34.813 208.213 34.6652C208.287 34.5174 208.287 34.3696 208.287 34.2957H209.617C209.617 34.5913 209.543 34.887 209.47 35.1826C209.322 35.4783 209.174 35.7 208.952 35.9217C208.73 36.1435 208.435 36.2913 208.065 36.4391C207.696 36.587 207.252 36.6609 206.809 36.6609H205.626V36.587Z" fill="#454545"/>
<path d="M212.13 45.8261C212.13 45.9 212.204 45.9739 212.204 45.9739C212.204 45.9739 212.278 46.0478 212.352 46.0478C212.426 46.0478 212.426 46.0478 212.5 45.9739C212.5 45.9 212.574 45.9 212.574 45.8261V41.5391H211.613V40.0609H214.348V45.6043C214.348 45.9739 214.274 46.2696 214.2 46.4913C214.126 46.713 213.978 46.9348 213.757 47.0826C213.609 47.2304 213.387 47.3783 213.165 47.4522C212.944 47.5261 212.648 47.5261 212.426 47.5261C212.13 47.5261 211.909 47.5261 211.687 47.4522C211.465 47.3783 211.317 47.3043 211.17 47.1565C211.022 47.0087 210.874 46.8609 210.8 46.713C210.726 46.5652 210.578 46.3435 210.504 46.1217L209.322 42.8696H211.17L212.13 45.8261Z" fill="#454545"/>
<path d="M217.304 47.3783H215.531V43.0913C215.531 42.7957 215.531 42.5739 215.604 42.2783C215.678 42.0565 215.752 41.7609 215.826 41.5391C215.9 41.3174 216.048 41.0957 216.196 40.8739C216.344 40.6522 216.565 40.5044 216.787 40.3565C217.009 40.2087 217.304 40.1348 217.674 39.987C217.97 39.9131 218.339 39.8391 218.783 39.8391C219.226 39.8391 219.596 39.9131 219.891 39.987C220.187 40.0609 220.483 40.2087 220.704 40.3565C220.926 40.5044 221.148 40.6522 221.296 40.8739C221.444 41.0957 221.591 41.3174 221.665 41.5391C221.739 41.7609 221.813 42.0565 221.887 42.2783C221.961 42.5739 221.961 42.7957 221.961 43.0913V47.3783H220.187V42.9435C220.187 42.7957 220.187 42.5739 220.113 42.4261C220.039 42.2783 219.965 42.1304 219.817 41.9826C219.67 41.8348 219.522 41.7609 219.374 41.6131C219.226 41.4652 218.931 41.4652 218.709 41.4652C218.413 41.4652 218.191 41.5391 218.044 41.6131C217.896 41.687 217.674 41.8348 217.6 41.9826C217.452 42.1304 217.378 42.2783 217.304 42.4261C217.231 42.5739 217.231 42.7957 217.231 42.9435V43.6087C217.378 43.4609 217.526 43.387 217.674 43.2391C217.822 43.1652 217.97 43.0174 218.117 43.0174C218.265 42.9435 218.487 42.8696 218.635 42.8696C218.857 42.8696 219.078 42.7957 219.3 42.7957V44.3478C218.931 44.3478 218.635 44.4218 218.339 44.4957C218.044 44.5696 217.896 44.7174 217.674 44.9391C217.526 45.087 217.378 45.3087 217.304 45.6044C217.231 45.8261 217.157 46.1217 217.157 46.4174V47.3783H217.304Z" fill="#454545"/>
<path d="M222.404 37.8435C222.183 37.8435 222.035 37.8435 221.813 37.9174C221.665 37.9913 221.517 38.0652 221.37 38.1391C221.222 38.213 221.148 38.3609 221.148 38.5087C221.074 38.6565 221.074 38.8043 221.074 39.0261H219.374C219.374 38.6565 219.448 38.287 219.596 37.9913C219.743 37.6957 219.965 37.4 220.187 37.1783C220.483 36.9565 220.778 36.8087 221.148 36.6609C221.517 36.513 221.887 36.513 222.33 36.513V37.8435H222.404Z" fill="#454545"/>
<path d="M226.544 38.8783C226.544 38.7304 226.544 38.6565 226.47 38.5087C226.396 38.3609 226.322 38.287 226.248 38.213C226.174 38.1391 226.026 38.0652 225.952 37.9913C225.804 37.9174 225.657 37.9174 225.509 37.9174L225.878 36.587H229.574L230.165 37.9913H227.874C227.948 38.0652 228.022 38.1391 228.022 38.213C228.096 38.287 228.096 38.3609 228.17 38.4348C228.17 38.5087 228.244 38.6565 228.244 38.7304C228.244 38.8044 228.244 38.9522 228.244 39.0261V45.9739H228.983V47.3783H226.544V38.8783V38.8783Z" fill="#454545"/>
<path d="M234.304 44.0522C234.083 44.2 233.935 44.2739 233.713 44.3478C233.491 44.4217 233.344 44.4218 233.196 44.4957C232.974 44.5696 232.826 44.5696 232.604 44.6435C232.383 44.7174 232.235 44.7174 232.087 44.7913C231.939 44.8652 231.791 44.9391 231.717 45.0131C231.644 45.087 231.57 45.2348 231.57 45.3826C231.57 45.5304 231.57 45.6783 231.644 45.7522C231.717 45.8261 231.791 45.9739 231.865 45.9739C231.939 45.9739 232.087 46.0478 232.235 46.1218C232.383 46.1218 232.457 46.1957 232.604 46.1957C232.752 46.1957 232.9 46.1957 233.048 46.1218C233.196 46.1218 233.417 46.0478 233.565 45.9739V47.3044C233.344 47.3783 233.122 47.4522 232.9 47.4522C232.678 47.4522 232.53 47.5261 232.309 47.5261C231.939 47.5261 231.644 47.4522 231.348 47.3783C231.052 47.3044 230.757 47.1565 230.535 47.0087C230.313 46.8609 230.091 46.6391 229.944 46.3435C229.796 46.0478 229.722 45.7522 229.722 45.3087C229.722 45.087 229.722 44.7913 229.796 44.6435C229.87 44.4218 229.944 44.2739 230.091 44.1261C230.239 43.9783 230.387 43.8304 230.535 43.7565C230.757 43.6087 230.904 43.5348 231.2 43.4609C231.422 43.387 231.717 43.3131 232.013 43.2391C232.309 43.1652 232.604 43.0913 232.9 43.0174C233.048 43.0174 233.27 42.9435 233.417 42.8696C233.565 42.7957 233.713 42.7957 233.861 42.7217C234.009 42.6478 234.083 42.5739 234.157 42.5C234.23 42.4261 234.304 42.3522 234.304 42.2044C234.304 42.0565 234.304 41.9087 234.231 41.7609C234.157 41.687 234.083 41.6131 233.935 41.5391C233.787 41.4652 233.713 41.4652 233.565 41.4652C233.417 41.4652 233.27 41.4652 233.122 41.4652C232.9 41.4652 232.752 41.4652 232.604 41.5391C232.457 41.5391 232.309 41.6131 232.161 41.7609C232.013 41.8348 231.939 41.9826 231.865 42.1304C231.791 42.2783 231.717 42.5 231.717 42.7217H229.944C229.944 42.3522 230.017 42.0565 230.091 41.7609C230.165 41.4652 230.313 41.2435 230.461 41.0217C230.609 40.8 230.757 40.6522 230.978 40.5044C231.2 40.3565 231.422 40.2826 231.644 40.1348C231.865 40.0609 232.161 39.987 232.383 39.9131C232.604 39.8391 232.9 39.8391 233.196 39.8391C233.417 39.8391 233.639 39.8391 233.861 39.9131C234.083 39.9131 234.304 39.987 234.526 40.0609C234.748 40.1348 234.97 40.2087 235.117 40.3565C235.339 40.5044 235.487 40.5783 235.635 40.8C235.783 40.9478 235.857 41.1696 235.931 41.3913C236.004 41.6131 236.078 41.9087 236.078 42.2044V47.3783H234.304V44.0522Z" fill="#454545"/>
<path d="M238.591 44.7174H237.704V43.2391H239.848L240.513 45.3087C240.587 45.1609 240.587 45.0131 240.661 44.8652C240.735 44.7174 240.809 44.5696 240.809 44.3478C240.883 44.2 240.883 44.0522 240.957 43.8304C241.03 43.6826 241.03 43.5348 241.104 43.387C241.178 43.2391 241.178 43.0913 241.178 43.0174C241.178 42.8696 241.178 42.7957 241.178 42.7218C241.178 42.3522 241.104 42.0565 240.883 41.8348C240.661 41.6131 240.365 41.5391 239.996 41.5391C239.7 41.5391 239.404 41.6131 239.183 41.8348C238.961 42.0565 238.813 42.3522 238.739 42.7218H236.817C236.891 42.3522 237.039 41.9826 237.187 41.6131C237.335 41.2435 237.557 41.0218 237.852 40.7261C238.148 40.5044 238.443 40.2826 238.813 40.1348C239.183 39.987 239.626 39.9131 240.07 39.9131C240.291 39.9131 240.513 39.9131 240.735 39.987C240.957 39.987 241.178 40.0609 241.4 40.1348C241.622 40.2087 241.843 40.3565 241.991 40.4304C242.213 40.5783 242.361 40.7261 242.509 40.9478C242.657 41.1696 242.73 41.3913 242.804 41.6131C242.878 41.8348 242.952 42.2044 242.952 42.5C242.952 42.6478 242.952 42.8696 242.878 43.0913C242.804 43.3131 242.804 43.5348 242.657 43.8304C242.583 44.1261 242.509 44.3478 242.361 44.6435C242.287 44.9391 242.139 45.2348 241.991 45.5304C241.843 45.8261 241.77 46.1218 241.622 46.4174C241.474 46.7131 241.4 47.0087 241.252 47.3044H239.478L238.591 44.7174Z" fill="#454545"/>
<path d="M237.63 39.1L238.296 37.6957H243.026V39.1H237.63Z" fill="#454545"/>
<path d="M248.791 44.0522C248.57 44.2 248.422 44.2739 248.2 44.3478C247.978 44.4217 247.83 44.4217 247.683 44.4957C247.461 44.5696 247.313 44.5696 247.091 44.6435C246.87 44.7174 246.722 44.7174 246.574 44.7913C246.426 44.8652 246.278 44.9391 246.204 45.0131C246.13 45.087 246.057 45.2348 246.057 45.3826C246.057 45.5304 246.057 45.6783 246.13 45.7522C246.204 45.8261 246.278 45.9739 246.352 45.9739C246.426 46.0478 246.574 46.0478 246.722 46.1217C246.87 46.1217 246.944 46.1957 247.091 46.1957C247.239 46.1957 247.387 46.1957 247.535 46.1217C247.683 46.1217 247.904 46.0478 248.052 45.9739V47.3044C247.83 47.3783 247.609 47.4522 247.387 47.4522C247.165 47.4522 247.017 47.5261 246.796 47.5261C246.426 47.5261 246.13 47.4522 245.835 47.3783C245.539 47.3044 245.244 47.1565 245.022 47.0087C244.8 46.8609 244.578 46.6391 244.43 46.3435C244.283 46.0478 244.209 45.7522 244.209 45.3087C244.209 44.9391 244.283 44.5696 244.43 44.3478C244.578 44.1261 244.8 43.9044 245.096 43.6826C245.391 43.5348 245.687 43.387 246.13 43.2391C246.5 43.1652 246.944 43.0174 247.461 42.9435C247.609 42.9435 247.83 42.8696 247.978 42.7957C248.126 42.7217 248.274 42.7217 248.422 42.6478C248.57 42.5739 248.644 42.5 248.717 42.4261C248.791 42.3522 248.865 42.2783 248.865 42.1304C248.865 41.9826 248.865 41.8348 248.791 41.687C248.717 41.6131 248.644 41.5391 248.496 41.4652C248.348 41.3913 248.274 41.3913 248.126 41.3913C247.978 41.3913 247.83 41.3913 247.683 41.3913C247.461 41.3913 247.313 41.3913 247.165 41.4652C247.017 41.4652 246.87 41.5391 246.722 41.687C246.574 41.7609 246.5 41.9087 246.426 42.0565C246.352 42.2044 246.278 42.4261 246.278 42.6478H244.504C244.504 42.2783 244.578 41.9826 244.652 41.687C244.726 41.3913 244.874 41.1696 245.022 40.9478C245.17 40.7261 245.317 40.5783 245.539 40.4304C245.761 40.2826 245.983 40.2087 246.204 40.0609C246.426 39.987 246.722 39.9131 246.944 39.8391C247.239 39.7652 247.461 39.7652 247.757 39.7652C247.978 39.7652 248.2 39.7652 248.422 39.8391C248.644 39.8391 248.865 39.913 249.087 39.987C249.161 39.913 249.235 39.9131 249.235 39.8391C249.309 39.7652 249.309 39.6913 249.309 39.6174C249.309 39.5435 249.383 39.4696 249.383 39.3957C249.383 39.3217 249.383 39.2478 249.383 39.1739H251.157C251.157 39.3217 251.157 39.4696 251.083 39.6174C251.009 39.7652 251.009 39.9131 250.935 40.0609C250.861 40.2087 250.787 40.3565 250.639 40.4304C250.491 40.5783 250.417 40.6522 250.27 40.7261C250.344 40.8739 250.417 41.0957 250.491 41.2435C250.565 41.4652 250.565 41.687 250.565 41.9087V47.0826H248.791V44.0522Z" fill="#454545"/>
<path d="M253.596 42.7957V45.087L254.557 44.0522H254.039V42.9435H256.404V44.0522L253.3 47.3783H251.822V42.9435C251.822 42.5739 251.896 42.2783 251.97 41.9826C252.044 41.687 252.191 41.3913 252.339 41.0957C252.561 40.8 252.783 40.5783 253.078 40.3565C253.374 40.1348 253.744 39.987 254.187 39.9131L255.296 40.6522L256.404 39.9131C256.848 39.987 257.143 40.1348 257.439 40.3565C257.735 40.5783 257.957 40.8 258.178 41.0218C258.326 41.3174 258.474 41.6131 258.548 41.9087C258.622 42.2044 258.696 42.5739 258.696 42.8696V47.3044H256.922V42.7218C256.922 42.5 256.848 42.3522 256.774 42.1304C256.7 41.9087 256.552 41.7609 256.404 41.6131L255.665 42.0565C255.517 42.1304 255.444 42.1304 255.296 42.1304C255.148 42.1304 255 42.1304 254.926 42.0565L254.187 41.5391C254.039 41.687 253.891 41.8348 253.817 42.0565C253.596 42.4261 253.596 42.6478 253.596 42.7957Z" fill="#454545"/>
<path d="M252.191 39.1L252.857 37.6957H258.622V39.1H252.191Z" fill="#454545"/>
<path d="M262.909 41.5391C262.687 41.5391 262.465 41.5391 262.317 41.613C262.17 41.687 262.022 41.687 261.874 41.7609C261.726 41.8348 261.652 41.9087 261.578 41.9826C261.504 42.0565 261.43 42.1304 261.43 42.2043C261.578 42.3522 261.652 42.5 261.726 42.7217C261.8 42.9435 261.8 43.1652 261.8 43.4609V47.3783H260.026V43.4609C260.026 43.387 260.026 43.313 260.026 43.2391C260.026 43.1652 259.952 43.0913 259.952 43.0174C259.878 42.9435 259.878 42.8696 259.73 42.7957C259.657 42.7217 259.583 42.6478 259.435 42.5739C259.509 42.3522 259.583 42.1304 259.657 41.9826C259.73 41.7609 259.878 41.613 260.026 41.3913C260.174 41.1696 260.322 41.0217 260.47 40.8739C260.691 40.7261 260.839 40.5783 261.135 40.4304C261.357 40.2826 261.652 40.2087 261.948 40.1348C262.244 40.0609 262.539 40.0609 262.909 40.0609C263.352 40.0609 263.722 40.1348 264.017 40.2087C264.313 40.2826 264.609 40.4304 264.904 40.5043C265.126 40.6522 265.348 40.8 265.57 41.0217C265.717 41.2435 265.865 41.4652 266.013 41.687C266.087 41.9087 266.161 42.1304 266.235 42.4261C266.309 42.6478 266.309 42.9435 266.309 43.2391V47.6H264.535V43.0913C264.535 42.9435 264.535 42.7217 264.461 42.5739C264.387 42.4261 264.313 42.2783 264.165 42.1304C264.017 41.9826 263.87 41.9087 263.648 41.8348C263.426 41.5391 263.204 41.5391 262.909 41.5391Z" fill="#454545"/>
<path d="M271.926 44.0522C271.704 44.2 271.557 44.2739 271.335 44.3478C271.113 44.4217 270.965 44.4217 270.817 44.4957C270.596 44.5696 270.448 44.5696 270.226 44.6435C270.004 44.7174 269.857 44.7174 269.709 44.7913C269.561 44.8652 269.413 44.9391 269.339 45.0131C269.265 45.087 269.191 45.2348 269.191 45.3826C269.191 45.5304 269.191 45.6783 269.265 45.7522C269.339 45.8261 269.413 45.9739 269.487 45.9739C269.561 46.0478 269.709 46.0478 269.857 46.1217C270.004 46.1217 270.078 46.1957 270.226 46.1957C270.374 46.1957 270.522 46.1957 270.67 46.1217C270.817 46.1217 271.039 46.0478 271.187 45.9739V47.3044C270.965 47.3783 270.743 47.4522 270.522 47.4522C270.3 47.4522 270.152 47.5261 269.93 47.5261C269.561 47.5261 269.265 47.4522 268.97 47.3783C268.674 47.3044 268.378 47.1565 268.157 47.0087C267.935 46.8609 267.713 46.6391 267.565 46.3435C267.417 46.0478 267.344 45.7522 267.344 45.3087C267.344 44.9391 267.417 44.5696 267.565 44.3478C267.713 44.1261 267.935 43.9044 268.23 43.6826C268.526 43.5348 268.822 43.387 269.265 43.2391C269.635 43.1652 270.078 43.0174 270.596 42.9435C270.744 42.9435 270.965 42.8696 271.113 42.7957C271.261 42.7217 271.409 42.7217 271.557 42.6478C271.704 42.5739 271.778 42.5 271.852 42.4261C271.926 42.3522 272 42.2783 272 42.1304C272 41.9826 272 41.8348 271.926 41.687C271.852 41.6131 271.778 41.5391 271.63 41.4652C271.483 41.3913 271.409 41.3913 271.261 41.3913C271.113 41.3913 270.965 41.3913 270.817 41.3913C270.596 41.3913 270.448 41.3913 270.3 41.4652C270.152 41.4652 270.004 41.5391 269.857 41.687C269.709 41.8348 269.635 41.9087 269.561 42.0565C269.487 42.2044 269.413 42.4261 269.413 42.6478H267.565C267.565 42.2783 267.639 41.9826 267.713 41.687C267.787 41.3913 267.935 41.1696 268.083 40.9478C268.23 40.7261 268.378 40.5783 268.6 40.4304C268.822 40.2826 269.043 40.2087 269.265 40.0609C269.487 39.987 269.783 39.9131 270.004 39.8391C270.226 39.7652 270.522 39.7652 270.817 39.7652C271.039 39.7652 271.261 39.7652 271.483 39.8391C271.704 39.8391 271.926 39.913 272.148 39.987C272.222 39.913 272.296 39.9131 272.296 39.8391C272.37 39.7652 272.37 39.6913 272.37 39.6174C272.37 39.5435 272.444 39.4696 272.444 39.3957C272.444 39.3217 272.444 39.2478 272.444 39.1739H274.217C274.217 39.3217 274.217 39.4696 274.143 39.6174C274.07 39.7652 274.07 39.9131 273.996 40.0609C273.922 40.2087 273.848 40.3565 273.7 40.4304C273.552 40.5783 273.478 40.6522 273.33 40.7261C273.404 40.8739 273.478 41.0957 273.552 41.2435C273.626 41.4652 273.626 41.687 273.626 41.9087V47.0826H271.852V44.0522H271.926Z" fill="#454545"/>
<path d="M273.996 37.8435C273.774 37.8435 273.626 37.8435 273.404 37.9174C273.257 37.9913 273.109 38.0652 272.961 38.1391C272.813 38.213 272.739 38.3609 272.739 38.5087C272.665 38.6565 272.665 38.8043 272.665 39.0261H270.965C270.965 38.6565 271.039 38.287 271.187 37.9913C271.335 37.6957 271.557 37.4 271.778 37.1783C272.074 36.9565 272.37 36.8087 272.739 36.6609C273.109 36.513 273.478 36.513 273.922 36.513V37.8435H273.996Z" fill="#454545"/>
<path d="M279.096 44.7174H278.209V43.2391H280.352L281.017 45.3087C281.091 45.1609 281.091 45.0131 281.165 44.8652C281.239 44.7174 281.313 44.5696 281.313 44.3478C281.387 44.2 281.387 44.0522 281.461 43.8304C281.535 43.6826 281.535 43.5348 281.609 43.387C281.683 43.2391 281.683 43.0913 281.683 43.0174C281.683 42.9435 281.683 42.7957 281.683 42.7218C281.683 42.3522 281.609 42.0565 281.387 41.8348C281.165 41.6131 280.87 41.5391 280.5 41.5391C280.204 41.5391 279.909 41.6131 279.687 41.8348C279.465 42.0565 279.317 42.3522 279.243 42.7218H277.322C277.396 42.3522 277.544 41.9826 277.691 41.6131C277.839 41.2435 278.061 41.0218 278.357 40.7261C278.652 40.5044 278.948 40.2826 279.317 40.1348C279.687 39.987 280.13 39.9131 280.574 39.9131C280.796 39.9131 281.017 39.9131 281.239 39.987C281.461 39.987 281.683 40.0609 281.904 40.1348C282.126 40.2087 282.348 40.3565 282.496 40.4304C282.717 40.5783 282.865 40.7261 283.013 40.9478C283.161 41.1696 283.235 41.3913 283.309 41.6131C283.383 41.8348 283.457 42.2044 283.457 42.5C283.457 42.6478 283.457 42.8696 283.383 43.0913C283.309 43.3131 283.309 43.5348 283.161 43.8304C283.013 44.1261 283.013 44.3478 282.865 44.6435C282.791 44.9391 282.644 45.2348 282.496 45.5304C282.348 45.8261 282.274 46.1218 282.126 46.4174C281.978 46.7131 281.904 47.0087 281.757 47.3044H279.761L279.096 44.7174Z" fill="#454545"/>
<path d="M281.165 37.7696C281.165 37.5478 281.239 37.3261 281.313 37.1783C281.387 36.9565 281.461 36.8087 281.609 36.6609C281.757 36.5131 281.904 36.4391 282.052 36.3652C282.2 36.2913 282.422 36.2174 282.644 36.2174C282.865 36.2174 283.013 36.2913 283.235 36.3652C283.383 36.4391 283.604 36.587 283.678 36.6609C283.826 36.8087 283.9 36.9565 283.974 37.1783C284.048 37.4 284.122 37.5478 284.122 37.7696C284.122 37.9913 284.048 38.1391 283.974 38.3609C283.9 38.5087 283.752 38.7305 283.678 38.8044C283.53 38.9522 283.383 39.0261 283.235 39.1C283.087 39.1739 282.865 39.2478 282.644 39.2478C282.422 39.2478 282.274 39.1739 282.052 39.1C281.904 39.0261 281.683 38.8783 281.609 38.8044C281.461 38.6565 281.387 38.5087 281.313 38.3609C281.239 38.1391 281.165 37.9913 281.165 37.7696ZM282.126 37.7696C282.126 37.8435 282.126 37.9174 282.2 37.9913C282.2 38.0652 282.274 38.1391 282.348 38.1391C282.422 38.2131 282.422 38.2131 282.496 38.287C282.57 38.287 282.644 38.3609 282.717 38.3609C282.791 38.3609 282.865 38.3609 282.939 38.287C283.013 38.2131 283.087 38.2131 283.087 38.1391C283.161 38.0652 283.161 37.9913 283.235 37.9913C283.235 37.9174 283.309 37.8435 283.309 37.7696C283.309 37.6957 283.309 37.6218 283.235 37.5478C283.235 37.4739 283.161 37.4 283.087 37.4C283.013 37.3261 283.013 37.3261 282.939 37.2522C282.865 37.2522 282.791 37.1783 282.717 37.1783C282.644 37.1783 282.57 37.1783 282.496 37.2522C282.422 37.2522 282.348 37.3261 282.348 37.4C282.274 37.4739 282.274 37.5478 282.2 37.5478C282.126 37.6218 282.126 37.6957 282.126 37.7696Z" fill="#454545"/>
<path d="M284.417 42.6478C284.417 42.2044 284.491 41.8348 284.639 41.4652C284.787 41.0957 285.009 40.8739 285.231 40.5783C285.452 40.3565 285.748 40.2087 286.117 40.0609C286.487 39.9131 286.783 39.9131 287.152 39.9131C287.522 39.9131 287.891 39.987 288.187 40.0609C288.483 40.1348 288.778 40.2826 289 40.5044C289.222 40.7261 289.444 40.9478 289.591 41.3174C289.739 41.6131 289.813 41.9826 289.813 42.4261V47.3783H288.039V42.7218C288.039 42.2783 287.965 41.9826 287.817 41.8348C287.67 41.6131 287.448 41.5391 287.152 41.5391C286.857 41.5391 286.709 41.6131 286.487 41.8348C286.339 42.0565 286.265 42.3522 286.191 42.7218H284.417V42.6478Z" fill="#454545"/>
<path d="M294.026 41.5391C293.804 41.5391 293.583 41.5391 293.435 41.613C293.287 41.687 293.139 41.687 292.991 41.7609C292.843 41.8348 292.77 41.9087 292.696 41.9826C292.622 42.0565 292.548 42.1304 292.548 42.2043C292.696 42.3522 292.77 42.5 292.843 42.7217C292.917 42.9435 292.917 43.1652 292.917 43.4609V47.3783H291.217V43.4609C291.217 43.387 291.217 43.313 291.217 43.2391C291.217 43.1652 291.143 43.0913 291.143 43.0174C291.07 42.9435 291.07 42.8696 290.922 42.7957C290.848 42.7217 290.774 42.6478 290.626 42.5739C290.7 42.3522 290.774 42.1304 290.848 41.9826C290.922 41.7609 291.07 41.613 291.217 41.3913C291.365 41.1696 291.513 41.0217 291.661 40.8739C291.883 40.7261 292.03 40.5783 292.326 40.4304C292.548 40.2826 292.843 40.2087 293.139 40.1348C293.435 40.0609 293.73 40.0609 294.1 40.0609C294.543 40.0609 294.913 40.1348 295.209 40.2087C295.504 40.2826 295.8 40.4304 296.096 40.5043C296.317 40.6522 296.539 40.8 296.761 41.0217C296.909 41.2435 297.057 41.4652 297.204 41.687C297.278 41.9087 297.352 42.1304 297.426 42.4261C297.5 42.7217 297.5 42.9435 297.5 43.2391V47.6H295.652V43.0913C295.652 42.9435 295.652 42.7217 295.578 42.5739C295.504 42.4261 295.43 42.2783 295.283 42.1304C295.135 41.9826 294.987 41.9087 294.765 41.8348C294.617 41.5391 294.322 41.5391 294.026 41.5391Z" fill="#454545"/>
<path d="M293.435 39.1V37.1043H294.987V37.6956H298.387V39.1H293.435Z" fill="#454545"/>
<path d="M301.491 44.1261H300.974V43.0174H303.339V44.1261L300.235 47.4522H298.757V43.1652C298.757 42.8696 298.757 42.6478 298.83 42.3522C298.904 42.0565 298.978 41.8348 299.052 41.6131C299.2 41.3913 299.274 41.1696 299.496 40.9478C299.644 40.7261 299.865 40.5783 300.161 40.4304C300.383 40.2826 300.678 40.2087 301.048 40.0609C301.417 39.987 301.787 39.9131 302.23 39.9131C302.674 39.9131 303.044 39.987 303.339 40.0609C303.635 40.1348 303.931 40.2826 304.226 40.4304C304.448 40.5783 304.67 40.7261 304.891 40.9478C305.039 41.1696 305.187 41.3913 305.335 41.6131C305.409 41.8348 305.557 42.0565 305.557 42.3522C305.63 42.5739 305.63 42.8696 305.63 43.1652V47.4522H303.783V43.0174C303.783 42.8696 303.783 42.6478 303.709 42.5C303.635 42.3522 303.561 42.2044 303.413 42.0565C303.265 41.9087 303.117 41.8348 302.896 41.7609C302.674 41.687 302.452 41.6131 302.157 41.6131C301.861 41.6131 301.639 41.687 301.417 41.7609C301.196 41.8348 301.048 41.9826 300.9 42.0565C300.752 42.2044 300.678 42.3522 300.604 42.5C300.531 42.6478 300.531 42.8696 300.531 43.0174V45.087L301.491 44.1261Z" fill="#454545"/>
</svg>
