<svg width="52" height="53" viewBox="0 0 52 53" fill="none" xmlns="http://www.w3.org/2000/svg">
<circle cx="26" cy="27" r="26" fill="#EDEDED"/>
<path d="M8.3356 15.6908L1.89653 22.1299C1.35737 22.6691 1.36167 23.5556 1.906 24.0999C2.45039 24.6443 3.33691 24.6486 3.87603 24.1094L10.3152 17.6703L8.3356 15.6908Z" fill="black"/>
<path d="M8.33554 15.6911L10.3149 17.6705L8.7403 19.2452L6.7609 17.2658L8.33554 15.6911Z" fill="white"/>
<path d="M6.76357 9.8611C6.76357 4.68409 10.9601 0.48761 16.1371 0.48761C21.3141 0.48761 25.5105 4.68409 25.5105 9.8611C25.5105 15.0381 21.314 19.2346 16.137 19.2346C10.96 19.2346 6.76357 15.0381 6.76357 9.8611Z" fill="#F5A922"/>
<path d="M16.1369 16.8913C12.2543 16.8913 9.10684 13.7438 9.10684 9.86119C9.10684 5.97859 12.2543 2.83112 16.1369 2.83112C20.0195 2.83112 23.167 5.97859 23.167 9.86119C23.167 13.7438 20.0195 16.8913 16.1369 16.8913Z" fill="#E3E4E2"/>
<path d="M1.54995 21.7846L6.07631 17.2582C5.9519 17.0688 5.9729 16.8119 6.13945 16.6454C6.30595 16.4789 6.56299 16.4578 6.75234 16.5822L7.9602 15.3744C7.05742 14.0342 6.48911 12.4819 6.32471 10.8629C6.09956 8.6455 6.63574 6.3978 7.83447 4.53368C7.98037 4.30688 8.28242 4.2413 8.50918 4.3871C8.73593 4.53295 8.80156 4.83505 8.65576 5.06181C6.41401 8.54775 6.91748 13.2085 9.85288 16.1439C13.3172 19.6082 18.9541 19.6082 22.4186 16.1439C25.8829 12.6796 25.8829 7.04267 22.4186 3.57826C19.48 0.639739 14.9677 0.119182 11.4454 2.3121C11.2166 2.45458 10.9155 2.38461 10.7729 2.15571C10.6304 1.92685 10.7005 1.62577 10.9293 1.48324C12.7881 0.326018 15.0172 -0.18033 17.2063 0.0573169C19.4288 0.298674 21.525 1.30395 23.109 2.88783C26.9541 6.7329 26.9541 12.9893 23.109 16.8343C21.1865 18.7569 18.6611 19.7181 16.1357 19.7181C14.2118 19.7181 12.2882 19.1595 10.6308 18.0437L9.429 19.2455C9.60957 19.4368 9.60669 19.7381 9.41948 19.9254C9.32412 20.0207 9.19921 20.0684 9.07426 20.0684C8.95376 20.0684 8.83354 20.0236 8.7396 19.9349L4.21992 24.4546C3.85615 24.8184 3.37793 24.9999 2.89838 24.9999C2.41445 24.9999 1.92915 24.8148 1.55937 24.4451C0.823338 23.709 0.81904 22.5155 1.54995 21.7846ZM8.33422 16.3812L7.44995 17.2655L8.73911 18.5546L9.62339 17.6704L8.33422 16.3812ZM2.24985 23.7547C2.60532 24.1101 3.17934 24.1144 3.52949 23.7642L8.04868 19.245L6.75952 17.9558L2.24038 22.475C1.89018 22.8252 1.89443 23.3993 2.24985 23.7547Z" fill="black"/>
<path d="M9.84254 3.58991C9.74718 3.68527 9.62228 3.73292 9.49733 3.73292C9.37237 3.73292 9.24742 3.68527 9.15211 3.58991C8.96149 3.39928 8.96149 3.09015 9.15211 2.89943L9.16271 2.88883C9.35275 2.69762 9.66188 2.69669 9.85314 2.88673C10.0444 3.07677 10.0453 3.3859 9.85523 3.57716L9.84254 3.58991Z" fill="black"/>
<path d="M16.1371 2.34283C20.2827 2.34283 23.6554 5.71554 23.6554 9.86114C23.6554 14.0067 20.2827 17.3795 16.1371 17.3795C11.9915 17.3795 8.61877 14.0067 8.61877 9.86114C8.61877 5.71554 11.9915 2.34283 16.1371 2.34283ZM16.1371 16.403C19.7443 16.403 22.679 13.4684 22.679 9.86114C22.679 6.25392 19.7443 3.31925 16.1371 3.31925C12.5299 3.31925 9.59519 6.25392 9.59519 9.86114C9.59519 13.4684 12.5299 16.403 16.1371 16.403Z" fill="black"/>
<path d="M32.5 15C32.7762 15 33 14.7239 33 14.3833V13.6167C33 13.2761 32.7762 13 32.5 13C32.2238 13 32 13.2761 32 13.6167V14.3833C31.9999 14.7239 32.2238 15 32.5 15Z" fill="black"/>
<path d="M32.5 18C32.7762 18 33 17.7239 33 17.3833V16.6167C33 16.2761 32.7762 16 32.5 16C32.2238 16 32 16.2761 32 16.6167V17.3833C31.9999 17.7239 32.2238 18 32.5 18Z" fill="black"/>
<path d="M33.6167 16H34.3833C34.7239 16 35 15.7762 35 15.5C35 15.2238 34.7239 15 34.3833 15H33.6167C33.2761 15 33 15.2238 33 15.5C33 15.7762 33.2761 16 33.6167 16Z" fill="black"/>
<path d="M30.6167 16H31.3833C31.7239 16 32 15.7762 32 15.5C32 15.2238 31.7239 15 31.3833 15H30.6167C30.2761 15 30 15.2238 30 15.5C30 15.7762 30.2761 16 30.6167 16Z" fill="black"/>
<path d="M40.5969 39.9017L39.8671 31.8741H46.352L47.0817 39.9017H40.5969Z" fill="#5DB9D2"/>
<path d="M27.8035 46.3749H49.5533V40.1606C49.5533 39.7486 49.3897 39.3534 49.0983 39.0621C48.807 38.7707 48.4118 38.607 47.9998 38.607H41.2677V32.9107H47.9998V30.8392L38.6784 29.8035V39.1249H27.8035V46.3749Z" fill="#0093B9"/>
<path d="M36.6071 46.3749C36.6071 45.0015 37.1527 43.6843 38.1238 42.7131C39.095 41.7419 40.4122 41.1964 41.7856 41.1964C43.159 41.1964 44.4762 41.7419 45.4474 42.7131C46.4185 43.6843 46.9641 45.0015 46.9641 46.3749H36.6071Z" fill="#067B98"/>
<path d="M41.7856 49.4819C43.5016 49.4819 44.8927 48.0908 44.8927 46.3748C44.8927 44.6588 43.5016 43.2677 41.7856 43.2677C40.0696 43.2677 38.6785 44.6588 38.6785 46.3748C38.6785 48.0908 40.0696 49.4819 41.7856 49.4819Z" fill="#4E4E4F"/>
<path d="M41.7856 47.4105C42.3576 47.4105 42.8213 46.9468 42.8213 46.3748C42.8213 45.8028 42.3576 45.3391 41.7856 45.3391C41.2136 45.3391 40.7499 45.8028 40.7499 46.3748C40.7499 46.9468 41.2136 47.4105 41.7856 47.4105Z" fill="#C9C9C8"/>
<path d="M25.7321 25.6606H38.6784V39.1249H25.7321V25.6606Z" fill="#EB5849"/>
<path d="M19.5179 21.5179H28.8393V49.482H19.5179V21.5179Z" fill="#F8BC1E"/>
<path d="M22.625 30.8392H25.7321V33.9464H22.625V30.8392Z" fill="#F9DA62"/>
<path d="M22.625 21.5179H25.7321V24.625H22.625V21.5179Z" fill="#F9DA62"/>
<path d="M28.8393 32.3928H28.0625C27.8565 32.3928 27.6589 32.4747 27.5132 32.6203C27.3676 32.766 27.2857 32.9636 27.2857 33.1696V34.484C27.2856 35.5775 26.8512 36.6261 26.078 37.3994C25.3048 38.1726 24.2561 38.607 23.1626 38.6071H20.8125C20.6065 38.6071 20.409 38.6889 20.2633 38.8346C20.1176 38.9803 20.0358 39.1778 20.0358 39.3839V40.1606H28.8393V32.3928Z" fill="#F5A922"/>
<path d="M28.8393 23.0714H28.0625C27.8565 23.0714 27.6589 23.1532 27.5132 23.2989C27.3676 23.4445 27.2857 23.6421 27.2857 23.8481V25.1625C27.2856 26.256 26.8512 27.3047 26.078 28.0779C25.3048 28.8511 24.2561 29.2855 23.1626 29.2856H20.8125C20.6065 29.2856 20.409 29.3674 20.2633 29.5131C20.1176 29.6588 20.0358 29.8564 20.0358 30.0624V30.8392H28.8393V23.0714Z" fill="#F5A922"/>
<path d="M22.625 40.1606H25.7321V43.2677H22.625V40.1606Z" fill="#F9DA62"/>
<path d="M28.8393 41.7141H28.0625C27.8565 41.7141 27.6589 41.7959 27.5132 41.9416C27.3676 42.0873 27.2857 42.2849 27.2857 42.4909V43.8053C27.2856 44.8988 26.8512 45.9474 26.078 46.7206C25.3048 47.4939 24.2561 47.9283 23.1626 47.9284H20.8125C20.6065 47.9284 20.409 48.0102 20.2633 48.1559C20.1176 48.3015 20.0358 48.4991 20.0358 48.7051V49.4819H28.8393V41.7141Z" fill="#F5A922"/>
<path d="M47.4819 38.6071V41.1964H49.5534V40.1607C49.5534 39.7486 49.3897 39.3535 49.0983 39.0621C48.807 38.7708 48.4118 38.6071 47.9998 38.6071H47.4819Z" fill="#F8BC1E"/>
<path d="M26.25 46.8927H27.2857V47.9284H26.25V46.8927Z" fill="black"/>
<path d="M26.25 37.5714H27.2857V38.6071H26.25V37.5714Z" fill="black"/>
<path d="M28.8392 21H19.5179C19.3805 21 19.2488 21.0546 19.1517 21.1517C19.0546 21.2488 19 21.3805 19 21.5179V49.482C19 49.6193 19.0546 49.751 19.1517 49.8482C19.2488 49.9453 19.3805 49.9998 19.5179 49.9998H28.8392C28.9766 49.9998 29.1083 49.9453 29.2054 49.8482C29.3025 49.751 29.3571 49.6193 29.3571 49.482V21.5179C29.3571 21.3805 29.3025 21.2488 29.2054 21.1517C29.1083 21.0546 28.9766 21 28.8392 21ZM23.1428 22.0357H25.2143V24.1071H23.1428V22.0357ZM22.1071 22.0357V24.625C22.1071 24.7623 22.1617 24.894 22.2588 24.9912C22.3559 25.0883 22.4876 25.1428 22.625 25.1428H25.7321C25.8694 25.1428 26.0012 25.0883 26.0983 24.9912C26.1954 24.894 26.25 24.7623 26.25 24.625V22.0357H28.3214V30.3214H20.0357V22.0357H22.1071ZM23.1428 40.6785H25.2143V42.7499H23.1428V40.6785ZM20.0357 39.6427V31.3571H22.1071V33.9464C22.1071 34.0837 22.1617 34.2154 22.2588 34.3125C22.3559 34.4096 22.4876 34.4642 22.625 34.4642H25.7321C25.8694 34.4642 26.0012 34.4096 26.0983 34.3125C26.1954 34.2154 26.25 34.0837 26.25 33.9464V31.3571H28.3214V39.6427H20.0357ZM23.1428 31.3571H25.2143V33.4285H23.1428V31.3571ZM20.0357 48.9641V40.6785H22.1071V43.2677C22.1071 43.4051 22.1617 43.5368 22.2588 43.6339C22.3559 43.731 22.4876 43.7856 22.625 43.7856H25.7321C25.8694 43.7856 26.0012 43.731 26.0983 43.6339C26.1954 43.5368 26.25 43.4051 26.25 43.2677V40.6785H28.3214V48.9641H20.0357Z" fill="black"/>
<path d="M26.25 28.25H27.2857V29.2857H26.25V28.25Z" fill="black"/>
<path d="M47.9997 38.0892H47.437L47.0132 33.4286H47.9997C48.1371 33.4286 48.2688 33.374 48.3659 33.2769C48.463 33.1798 48.5176 33.048 48.5176 32.9107V30.8393C48.5176 30.7118 48.4706 30.5889 48.3856 30.4939C48.3006 30.3989 48.1836 30.3387 48.0569 30.3246L39.1962 29.3401V25.6607C39.1962 25.5234 39.1417 25.3917 39.0445 25.2946C38.9474 25.1974 38.8157 25.1429 38.6784 25.1429H30.3927V26.1786H38.1605V38.6071H30.3927V39.6428H33.4998V45.8571H30.3927V46.8928H38.1981C38.3225 47.7555 38.7536 48.5445 39.4125 49.1152C40.0714 49.6859 40.9138 50 41.7855 50C42.6572 50 43.4996 49.6859 44.1585 49.1152C44.8173 48.5445 45.2485 47.7555 45.3729 46.8928H49.5533C49.6906 46.8928 49.8224 46.8382 49.9195 46.7411C50.0166 46.644 50.0712 46.5122 50.0712 46.3749V40.1607C50.0705 39.6115 49.8521 39.085 49.4638 38.6966C49.0754 38.3083 48.5489 38.0899 47.9997 38.0892ZM49.0355 40.1607V40.6785H47.9997V39.1249C48.2743 39.1253 48.5376 39.2345 48.7317 39.4287C48.9259 39.6228 49.0351 39.8861 49.0355 40.1607ZM46.397 38.0892H42.3033V33.4286H45.9733L46.397 38.0892ZM34.5355 39.6428H38.6784C38.8157 39.6428 38.9474 39.5882 39.0445 39.4911C39.1417 39.394 39.1962 39.2623 39.1962 39.1249V30.3821L47.4819 31.3028V32.3928H41.7855C41.6481 32.3928 41.5164 32.4474 41.4193 32.5445C41.3222 32.6416 41.2676 32.7734 41.2676 32.9107V40.7023C39.942 40.8251 38.7011 41.4077 37.7597 42.3491C36.8183 43.2905 36.2357 44.5314 36.1129 45.8571H34.5355V39.6428ZM41.7855 42.7499C40.9142 42.7511 40.0723 43.0656 39.4137 43.636C38.7551 44.2065 38.3236 44.9948 38.1981 45.8571H37.1543C37.2815 44.7178 37.8242 43.6654 38.6786 42.9012C39.533 42.1369 40.6392 41.7144 41.7855 41.7144C42.9318 41.7144 44.038 42.1369 44.8924 42.9012C45.7467 43.6654 46.2895 44.7178 46.4167 45.8571H45.3729C45.2474 44.9948 44.8159 44.2065 44.1573 43.636C43.4986 43.0656 42.6568 42.7511 41.7855 42.7499ZM41.7855 48.9642C41.2734 48.9642 40.7728 48.8123 40.347 48.5278C39.9212 48.2433 39.5893 47.8389 39.3933 47.3658C39.1973 46.8927 39.1461 46.372 39.246 45.8698C39.3459 45.3675 39.5925 44.9061 39.9546 44.544C40.3167 44.1819 40.7781 43.9353 41.2804 43.8354C41.7826 43.7355 42.3032 43.7868 42.7764 43.9827C43.2495 44.1787 43.6539 44.5106 43.9384 44.9364C44.2229 45.3622 44.3748 45.8628 44.3748 46.3749C44.374 47.0614 44.1009 47.7195 43.6155 48.2049C43.1301 48.6904 42.472 48.9634 41.7855 48.9642ZM47.4581 45.8571C47.3353 44.5314 46.7527 43.2905 45.8113 42.3491C44.8699 41.4077 43.629 40.8251 42.3033 40.7023V39.1249H46.964V41.1964C46.964 41.3337 47.0186 41.4654 47.1157 41.5625C47.2128 41.6597 47.3445 41.7142 47.4819 41.7142H49.0355V42.7499H47.9997V43.7856H49.0355V45.8571H47.4581Z" fill="black"/>
<path d="M35.5712 27.2142H36.6069V37.5713H35.5712V27.2142Z" fill="black"/>
<path d="M33.5 27.2142H34.5357V37.5713H33.5V27.2142Z" fill="black"/>
<path d="M31.4285 27.2142H32.4642V37.5713H31.4285V27.2142Z" fill="black"/>
<path d="M41.7856 44.8212C41.4784 44.8212 41.178 44.9123 40.9225 45.0831C40.667 45.2538 40.4679 45.4964 40.3503 45.7803C40.2327 46.0641 40.202 46.3765 40.2619 46.6779C40.3219 46.9792 40.4698 47.2561 40.6871 47.4733C40.9044 47.6906 41.1812 47.8386 41.4825 47.8985C41.7839 47.9584 42.0963 47.9277 42.3801 47.8101C42.664 47.6925 42.9067 47.4934 43.0774 47.2379C43.2481 46.9824 43.3392 46.6821 43.3392 46.3748C43.3387 45.9629 43.1749 45.568 42.8836 45.2768C42.5924 44.9855 42.1975 44.8217 41.7856 44.8212ZM41.7856 46.8926C41.6832 46.8926 41.5831 46.8623 41.4979 46.8054C41.4128 46.7485 41.3464 46.6676 41.3072 46.573C41.268 46.4783 41.2577 46.3742 41.2777 46.2738C41.2977 46.1733 41.347 46.081 41.4194 46.0086C41.4919 45.9362 41.5841 45.8869 41.6846 45.8669C41.785 45.8469 41.8892 45.8572 41.9838 45.8964C42.0784 45.9356 42.1593 46.0019 42.2162 46.0871C42.2731 46.1722 42.3035 46.2724 42.3035 46.3748C42.3033 46.5121 42.2487 46.6437 42.1516 46.7408C42.0545 46.8379 41.9229 46.8925 41.7856 46.8926Z" fill="black"/>
</svg>
