<svg width="52" height="52" viewBox="0 0 52 52" fill="none" xmlns="http://www.w3.org/2000/svg">
<circle cx="26" cy="26" r="26" fill="#EDEDED"/>
<path d="M35.1151 12.4792H16.1755C15.0548 12.4792 14.1462 13.3955 14.1462 14.5258V42.4958C14.1462 43.6261 15.0548 44.5424 16.1755 44.5424H35.1151C36.2358 44.5424 37.1443 43.6261 37.1443 42.4958V14.5258C37.1443 13.3955 36.2358 12.4792 35.1151 12.4792Z" fill="#0093B9"/>
<path d="M16.8519 15.208H34.4387V41.8136H16.8519V15.208Z" fill="#E3E4E2"/>
<path d="M30.3802 15.208H20.9104V12.4792H23.6161L22.9396 9.75043H28.3509L27.6745 12.4792H30.3802V15.208Z" fill="#57C3C1"/>
<path d="M29.0274 49.3178H4.67651V27.4875H16.852V38.4027H29.0274V49.3178Z" fill="#F8BC1E"/>
<path d="M20.9104 38.4026H24.9689V42.4958H20.9104V38.4026Z" fill="#F9DA62"/>
<path d="M29.0273 39.0848H28.0127C27.7436 39.0848 27.4856 39.1926 27.2953 39.3846C27.105 39.5765 26.9981 39.8367 26.9981 40.1081V41.8396C26.998 43.2801 26.4306 44.6616 25.4206 45.6802C24.4106 46.6988 23.0409 47.2711 21.6126 47.2712H18.5429C18.2738 47.2712 18.0158 47.379 17.8255 47.5709C17.6352 47.7628 17.5283 48.0231 17.5283 48.2945V49.3178H29.0273V39.0848Z" fill="#F5A922"/>
<path d="M8.73499 38.4026H12.7935V42.4958H8.73499V38.4026Z" fill="#F9DA62"/>
<path d="M16.8517 39.0848H15.8371C15.568 39.0848 15.3099 39.1926 15.1196 39.3846C14.9293 39.5765 14.8224 39.8367 14.8224 40.1081V41.8396C14.8223 43.2801 14.2549 44.6616 13.2449 45.6802C12.235 46.6988 10.8652 47.2711 9.43693 47.2712H6.36728C6.09819 47.2712 5.84011 47.379 5.64984 47.5709C5.45956 47.7628 5.35266 48.0231 5.35266 48.2945V49.3178H16.8517V39.0848Z" fill="#F5A922"/>
<path d="M8.73499 27.4875H12.7935V31.5807H8.73499V27.4875Z" fill="#F9DA62"/>
<path d="M16.8517 28.1698H15.8371C15.568 28.1698 15.3099 28.2776 15.1196 28.4695C14.9293 28.6614 14.8224 28.9217 14.8224 29.1931V30.9246C14.8223 32.3651 14.2549 33.7466 13.2449 34.7651C12.235 35.7837 10.8652 36.356 9.43693 36.3561H6.36728C6.09819 36.3561 5.84011 36.4639 5.64984 36.6559C5.45956 36.8478 5.35266 37.108 5.35266 37.3794V38.4027H16.8517V28.1698Z" fill="#F5A922"/>
<path d="M41.3587 30.0413L23.2139 35.5166L20.234 34.9916L22.4384 32.9024L40.5831 27.4271C40.9269 27.3234 41.2974 27.3616 41.6132 27.5334C41.929 27.7052 42.1641 27.9965 42.267 28.3431C42.3698 28.6898 42.3319 29.0635 42.1616 29.3819C41.9912 29.7004 41.7024 29.9376 41.3587 30.0413Z" fill="#F8BC1E"/>
<path d="M42.9149 28.1477C42.7607 27.6277 42.4079 27.1908 41.9343 26.9331C41.4606 26.6754 40.9049 26.618 40.3893 26.7736L22.2445 32.2488C22.1439 32.2792 22.0517 32.3328 21.9752 32.4053L19.7708 34.4945C19.6792 34.5812 19.6134 34.692 19.5808 34.8143C19.5481 34.9367 19.5499 35.0658 19.5858 35.1871C19.6218 35.3085 19.6906 35.4174 19.7845 35.5016C19.8784 35.5857 19.9937 35.6419 20.1174 35.6637L23.0973 36.1886C23.2007 36.2068 23.307 36.2005 23.4076 36.1702L38.1304 31.7274L38.1941 33.1323L33.5159 34.544L33.9037 35.8512L39.0879 34.2868C39.2324 34.2432 39.3583 34.1521 39.4456 34.0281C39.533 33.904 39.5767 33.7541 39.5698 33.6021L39.4664 31.3249L41.5525 30.6954C42.0681 30.5398 42.5013 30.1841 42.7568 29.7063C43.0123 29.2286 43.0692 28.6681 42.9149 28.1481V28.1477ZM23.173 34.817L21.683 34.5545L22.7852 33.5098L25.8723 32.5785L26.2601 33.8856L23.173 34.817ZM27.5561 33.4943L27.1684 32.1872L38.003 28.9177L38.0667 30.3227L27.5561 33.4943ZM41.5663 29.0581C41.5243 29.1371 41.4672 29.2069 41.3983 29.2635C41.3294 29.3201 41.2501 29.3624 41.1649 29.3878L39.4027 29.9195L39.339 28.5146L40.7771 28.0807C40.9053 28.042 41.0419 28.0425 41.1698 28.0822C41.2977 28.1219 41.411 28.1989 41.4955 28.3035C41.58 28.4081 41.6318 28.5356 41.6444 28.6699C41.657 28.8043 41.6298 28.9393 41.5663 29.0581Z" fill="black"/>
<path d="M29.0273 37.7205H17.5283V27.4876C17.5283 27.3067 17.457 27.1332 17.3302 27.0052C17.2033 26.8773 17.0313 26.8054 16.8519 26.8054H4.67641C4.49702 26.8054 4.32497 26.8773 4.19812 27.0052C4.07126 27.1332 4 27.3067 4 27.4876V49.3178C4 49.4988 4.07126 49.6723 4.19812 49.8002C4.32497 49.9282 4.49702 50 4.67641 50H29.0273C29.2067 50 29.3787 49.9282 29.5056 49.8002C29.6324 49.6723 29.7037 49.4988 29.7037 49.3178V38.4027C29.7037 38.2218 29.6324 38.0483 29.5056 37.9203C29.3787 37.7924 29.2067 37.7205 29.0273 37.7205ZM21.5867 39.0849H24.2924V41.8137H21.5867V39.0849ZM9.41131 28.1698H12.117V30.8986H9.41131V28.1698ZM5.35283 28.1698H8.05848V31.5808C8.05848 31.7617 8.12975 31.9352 8.2566 32.0632C8.38345 32.1911 8.5555 32.263 8.73489 32.263H12.7934C12.9728 32.263 13.1448 32.1911 13.2717 32.0632C13.3985 31.9352 13.4698 31.7617 13.4698 31.5808V28.1698H16.1754V37.7205H5.35283V28.1698ZM9.41131 39.0849H12.117V41.8137H9.41131V39.0849ZM5.35283 39.0849H8.05848V42.4959C8.05848 42.6768 8.12975 42.8503 8.2566 42.9783C8.38345 43.1062 8.5555 43.1781 8.73489 43.1781H12.7934C12.9728 43.1781 13.1448 43.1062 13.2717 42.9783C13.3985 42.8503 13.4698 42.6768 13.4698 42.4959V39.0849H16.1754V48.6357H5.35283V39.0849ZM28.3509 48.6357H17.5283V39.0849H20.2339V42.4959C20.2339 42.6768 20.3052 42.8503 20.432 42.9783C20.5589 43.1062 20.7309 43.1781 20.9103 43.1781H24.9688C25.1482 43.1781 25.3203 43.1062 25.4471 42.9783C25.574 42.8503 25.6452 42.6768 25.6452 42.4959V39.0849H28.3509V48.6357Z" fill="black"/>
<path d="M25.6453 45.9068H26.9981V47.2712H25.6453V45.9068Z" fill="black"/>
<path d="M13.4696 45.9068H14.8224V47.2712H13.4696V45.9068Z" fill="black"/>
<path d="M13.4696 34.9916H14.8224V36.356H13.4696V34.9916Z" fill="black"/>
<path d="M14.8224 14.5259C14.8229 14.1641 14.9655 13.8173 15.2191 13.5616C15.4727 13.3058 15.8166 13.1619 16.1753 13.1615H20.2337V14.5259H16.8517C16.6723 14.5259 16.5002 14.5977 16.3734 14.7257C16.2465 14.8536 16.1753 15.0271 16.1753 15.2081V25.441H17.5281V15.8902H33.762V26.8054H35.1148V15.2081C35.1148 15.0271 35.0436 14.8536 34.9167 14.7257C34.7899 14.5977 34.6178 14.5259 34.4384 14.5259H31.0564V13.1615H35.1148C35.4735 13.1619 35.8173 13.3058 36.071 13.5616C36.3246 13.8173 36.4672 14.1641 36.4677 14.5259V26.1232H37.8205V14.5259C37.8197 13.8024 37.5344 13.1088 37.0271 12.5972C36.5199 12.0856 35.8322 11.7979 35.1148 11.7971H28.5406L29.0069 9.91593C29.0318 9.81535 29.0337 9.71037 29.0124 9.60896C28.991 9.50755 28.9471 9.41237 28.8838 9.33066C28.8206 9.24895 28.7397 9.18285 28.6473 9.13739C28.5549 9.09193 28.4535 9.0683 28.3507 9.0683H22.9394C22.8366 9.0683 22.7352 9.09193 22.6428 9.13739C22.5504 9.18285 22.4695 9.24895 22.4063 9.33066C22.343 9.41237 22.299 9.50755 22.2777 9.60896C22.2564 9.71037 22.2583 9.81535 22.2832 9.91593L22.7495 11.7971H16.1753C15.4579 11.7979 14.7702 12.0856 14.263 12.5972C13.7557 13.1088 13.4704 13.8024 13.4696 14.5259V25.441H14.8224V14.5259ZM21.5866 13.1615H23.6158C23.7186 13.1615 23.82 13.1378 23.9124 13.0924C24.0048 13.0469 24.0857 12.9808 24.1489 12.8991C24.2122 12.8174 24.2562 12.7222 24.2775 12.6208C24.2988 12.5194 24.2969 12.4144 24.272 12.3138L23.8057 10.4327H27.4844L27.0181 12.3138C26.9932 12.4144 26.9913 12.5194 27.0126 12.6208C27.0339 12.7222 27.0779 12.8174 27.1412 12.8991C27.2044 12.9808 27.2853 13.0469 27.3777 13.0924C27.4701 13.1378 27.5715 13.1615 27.6743 13.1615H29.7035V14.5259H21.5866V13.1615Z" fill="black"/>
<path d="M36.4678 42.4959C36.4674 42.8576 36.3247 43.2044 36.0711 43.4602C35.8175 43.716 35.4737 43.8599 35.115 43.8603H31.0565V45.2247H35.115C35.8323 45.2239 36.5201 44.9361 37.0273 44.4245C37.5345 43.913 37.8198 43.2194 37.8207 42.4959V36.3561H36.4678V42.4959Z" fill="black"/>
<path d="M35.115 41.8136V37.0383H33.7622V41.1314H31.0565V42.4958H34.4386C34.618 42.4958 34.79 42.424 34.9169 42.296C35.0437 42.1681 35.115 41.9946 35.115 41.8136Z" fill="black"/>
<path d="M22.9396 17.9369C22.9396 17.756 22.8683 17.5824 22.7415 17.4545C22.6146 17.3266 22.4426 17.2547 22.2632 17.2547H19.5575C19.3781 17.2547 19.2061 17.3266 19.0792 17.4545C18.9524 17.5824 18.8811 17.756 18.8811 17.9369V20.6657C18.8811 20.8466 18.9524 21.0201 19.0792 21.1481C19.2061 21.276 19.3781 21.3479 19.5575 21.3479H22.2632C22.4426 21.3479 22.6146 21.276 22.7415 21.1481C22.8683 21.0201 22.9396 20.8466 22.9396 20.6657V17.9369ZM21.5868 19.9835H20.2339V18.6191H21.5868V19.9835Z" fill="black"/>
<path d="M22.2632 23.3944H19.5575C19.3781 23.3944 19.2061 23.4663 19.0792 23.5942C18.9524 23.7222 18.8811 23.8957 18.8811 24.0766V26.8054C18.8811 26.9863 18.9524 27.1598 19.0792 27.2878C19.2061 27.4157 19.3781 27.4876 19.5575 27.4876H22.2632C22.4426 27.4876 22.6146 27.4157 22.7415 27.2878C22.8683 27.1598 22.9396 26.9863 22.9396 26.8054V24.0766C22.9396 23.8957 22.8683 23.7222 22.7415 23.5942C22.6146 23.4663 22.4426 23.3944 22.2632 23.3944ZM21.5868 26.1232H20.2339V24.7588H21.5868V26.1232Z" fill="black"/>
<path d="M24.2925 17.2547H25.6453V18.6191H24.2925V17.2547Z" fill="black"/>
<path d="M24.2925 19.9833H32.4094V21.3477H24.2925V19.9833Z" fill="black"/>
<path d="M26.998 17.2547H32.4094V18.6191H26.998V17.2547Z" fill="black"/>
<path d="M24.2925 23.3944H25.6453V24.7588H24.2925V23.3944Z" fill="black"/>
<path d="M24.2925 26.1232H32.4094V27.4876H24.2925V26.1232Z" fill="black"/>
<path d="M26.998 23.3944H32.4094V24.7588H26.998V23.3944Z" fill="black"/>
<path d="M48.8393 7.33929H44.8929C44.7647 7.33929 44.6607 7.23534 44.6607 7.10714V3.16071C44.6607 2.51971 44.141 2 43.5 2C42.859 2 42.3393 2.51971 42.3393 3.16071V7.10714C42.3393 7.23534 42.2353 7.33929 42.1071 7.33929H38.1607C37.5197 7.33929 37 7.859 37 8.5C37 9.141 37.5197 9.66071 38.1607 9.66071H42.1071C42.2353 9.66071 42.3393 9.76466 42.3393 9.89286V13.8393C42.3393 14.4803 42.859 15 43.5 15C44.141 15 44.6607 14.4803 44.6607 13.8393V9.89286C44.6607 9.76466 44.7647 9.66071 44.8929 9.66071H48.8393C49.4803 9.66071 50 9.141 50 8.5C50 7.859 49.4803 7.33929 48.8393 7.33929Z" fill="#F8BC1E" stroke="black" stroke-width="0.8"/>
</svg>
