<svg width="52" height="52" viewBox="0 0 52 52" fill="none" xmlns="http://www.w3.org/2000/svg">
<circle cx="26" cy="26" r="26" fill="#EDEDED"/>
<path d="M44.4816 29.4445V43.4445L31.0002 47.5926L17.5187 43.4445V29.4445L31.0002 25.2963L44.4816 29.4445Z" fill="#F8BC1E"/>
<path d="M44.4815 29.4445L31 33.5926V47.5926L44.4815 43.4445V29.4445Z" fill="#F79726"/>
<path d="M17.5187 29.4445L31.0002 33.5926V47.5926L17.5187 43.4445V29.4445Z" fill="#F5A922"/>
<path d="M36.1852 22.7037C36.1852 27.3704 31 31 31 31C31 31 25.8148 27.3704 25.8148 22.7037C25.8148 21.3285 26.3611 20.0096 27.3335 19.0372C28.3059 18.0648 29.6248 17.5185 31 17.5185C32.3752 17.5185 33.6941 18.0648 34.6665 19.0372C35.6389 20.0096 36.1852 21.3285 36.1852 22.7037Z" fill="#EB5849"/>
<path d="M21.6666 35.8263L26.8518 37.4217V34.8291L21.6666 33.2337V35.8263Z" fill="#E8732D"/>
<path d="M40.3334 35.8263L35.1482 37.4217V34.8291L40.3334 33.2337V35.8263Z" fill="#E8732D"/>
<path d="M31.0001 25.2963C32.4319 25.2963 33.5927 24.1356 33.5927 22.7037C33.5927 21.2719 32.4319 20.1111 31.0001 20.1111C29.5682 20.1111 28.4075 21.2719 28.4075 22.7037C28.4075 24.1356 29.5682 25.2963 31.0001 25.2963Z" fill="#E3E4E2"/>
<path d="M34.1111 22.7037C34.1111 22.0884 33.9287 21.4869 33.5868 20.9753C33.245 20.4636 32.7591 20.0649 32.1906 19.8294C31.6221 19.5939 30.9966 19.5323 30.3931 19.6524C29.7896 19.7724 29.2352 20.0687 28.8001 20.5038C28.365 20.9389 28.0687 21.4933 27.9487 22.0968C27.8287 22.7003 27.8903 23.3258 28.1257 23.8943C28.3612 24.4628 28.76 24.9486 29.2716 25.2905C29.7832 25.6324 30.3847 25.8148 31 25.8148C31.8249 25.8139 32.6156 25.4858 33.1989 24.9026C33.7821 24.3193 34.1102 23.5285 34.1111 22.7037ZM28.926 22.7037C28.926 22.2935 29.0476 21.8925 29.2755 21.5514C29.5034 21.2103 29.8273 20.9445 30.2063 20.7875C30.5853 20.6305 31.0023 20.5895 31.4047 20.6695C31.807 20.7495 32.1766 20.947 32.4666 21.2371C32.7567 21.5272 32.9542 21.8967 33.0342 22.2991C33.1143 22.7014 33.0732 23.1184 32.9162 23.4974C32.7592 23.8764 32.4934 24.2003 32.1523 24.4282C31.8112 24.6561 31.4102 24.7778 31 24.7778C30.4501 24.7772 29.9229 24.5584 29.5341 24.1696C29.1453 23.7808 28.9266 23.2536 28.926 22.7037Z" fill="black"/>
<path d="M30.7026 31.4248C30.7898 31.4858 30.8936 31.5185 31 31.5185C31.1064 31.5185 31.2102 31.4858 31.2973 31.4248C32.2821 30.6993 33.1831 29.8667 33.9838 28.9421C35.7631 26.8959 36.7037 24.7389 36.7037 22.7037C36.7037 21.191 36.1027 19.7402 35.0331 18.6706C33.9634 17.6009 32.5127 17 31 17C29.4873 17 28.0365 17.6009 26.9668 18.6706C25.8972 19.7402 25.2963 21.191 25.2963 22.7037C25.2963 24.7389 26.2368 26.8959 28.0161 28.9421C28.8168 29.8667 29.7178 30.6993 30.7026 31.4248ZM31 18.037C32.2372 18.0384 33.4234 18.5305 34.2983 19.4054C35.1731 20.2803 35.6652 21.4665 35.6666 22.7037C35.6666 26.4138 32.0705 29.5109 31 30.3507C29.9278 29.512 26.3333 26.4209 26.3333 22.7037C26.3347 21.4665 26.8268 20.2803 27.7017 19.4054C28.5765 18.5305 29.7627 18.0384 31 18.037Z" fill="black"/>
<path d="M24.1119 43.9359L24.4168 42.9444L25.4541 43.2634L25.1492 44.2548L24.1119 43.9359Z" fill="black"/>
<path d="M26.1858 44.5718L26.4907 43.5804L27.528 43.8994L27.223 44.8908L26.1858 44.5718Z" fill="black"/>
<path d="M28.2601 45.2117L28.565 44.2203L29.6023 44.5393L29.2974 45.5307L28.2601 45.2117Z" fill="black"/>
<path d="M44.634 28.9489L36.8562 26.5557L36.5512 27.5469L42.7185 29.4444L31 33.0501L19.2815 29.4444L25.4486 27.5469L25.1436 26.5557L17.3658 28.9489C17.2599 28.9815 17.1672 29.0472 17.1013 29.1364C17.0355 29.2256 17 29.3336 17 29.4444V43.4444C17 43.5553 17.0355 43.6633 17.1014 43.7525C17.1673 43.8417 17.26 43.9074 17.366 43.94L30.8475 48.0882C30.9469 48.1187 31.0531 48.1187 31.1525 48.0882L44.634 43.94C44.74 43.9074 44.8327 43.8417 44.8986 43.7525C44.9645 43.6633 45 43.5553 45 43.4444V29.4444C45 29.3335 44.9645 29.2256 44.8986 29.1364C44.8327 29.0472 44.74 28.9815 44.634 28.9489ZM18.037 30.1465L30.4815 33.9756V46.8905L18.037 43.0615V30.1465ZM31.5185 46.8905V33.9756L43.963 30.1465V43.0615L31.5185 46.8905Z" fill="black"/>
<path d="M37.5916 42.956L38.6288 42.637L38.9337 43.6284L37.8964 43.9474L37.5916 42.956Z" fill="black"/>
<path d="M39.665 42.3197L40.7023 42.0007L41.0072 42.9922L39.9699 43.3112L39.665 42.3197Z" fill="black"/>
<path d="M41.7407 41.6796L42.778 41.3606L43.0829 42.352L42.0456 42.671L41.7407 41.6796Z" fill="black"/>
<path d="M26.8519 37.9402C26.9894 37.9402 27.1213 37.8856 27.2185 37.7883C27.3158 37.6911 27.3704 37.5592 27.3704 37.4217V34.8291C27.3704 34.7182 27.3349 34.6102 27.269 34.521C27.2031 34.4318 27.1104 34.3661 27.0044 34.3335L21.8192 32.738C21.7417 32.7142 21.6596 32.7088 21.5796 32.7225C21.4996 32.7361 21.4239 32.7683 21.3586 32.8165C21.2934 32.8647 21.2403 32.9276 21.2038 33C21.1672 33.0725 21.1482 33.1525 21.1482 33.2337V35.8263C21.1482 35.9371 21.1837 36.0451 21.2496 36.1343C21.3155 36.2235 21.4082 36.2892 21.5142 36.3218L26.6994 37.9173C26.7488 37.9325 26.8002 37.9402 26.8519 37.9402ZM26.3334 36.7196L22.1852 35.4433V33.9357L26.3334 35.212V36.7196Z" fill="black"/>
<path d="M40.8519 35.8263V33.2337C40.8519 33.1525 40.8328 33.0725 40.7963 33C40.7597 32.9276 40.7067 32.8647 40.6414 32.8165C40.5761 32.7683 40.5005 32.7361 40.4205 32.7225C40.3405 32.7088 40.2584 32.7142 40.1808 32.738L34.9956 34.3335C34.8897 34.3661 34.7969 34.4318 34.7311 34.521C34.6652 34.6102 34.6296 34.7182 34.6296 34.8291V37.4217C34.6296 37.5028 34.6487 37.5828 34.6852 37.6553C34.7218 37.7277 34.7748 37.7906 34.8401 37.8388C34.9054 37.887 34.981 37.9192 35.061 37.9329C35.141 37.9465 35.2231 37.9412 35.3007 37.9173L40.4858 36.3218C40.5918 36.2892 40.6846 36.2235 40.7504 36.1343C40.8163 36.0451 40.8519 35.9371 40.8519 35.8263ZM39.8148 35.4433L35.6667 36.7196V35.212L39.8148 33.9357V35.4433Z" fill="black"/>
<path d="M8.3356 16.6908L1.89653 23.1299C1.35737 23.669 1.36167 24.5556 1.906 25.0999C2.45039 25.6443 3.33691 25.6485 3.87603 25.1094L10.3152 18.6703L8.3356 16.6908Z" fill="black"/>
<path d="M8.33554 16.6912L10.3149 18.6706L8.7403 20.2452L6.7609 18.2658L8.33554 16.6912Z" fill="white"/>
<path d="M6.7637 10.8611C6.7637 5.68412 10.9602 1.48764 16.1372 1.48764C21.3142 1.48764 25.5106 5.68412 25.5106 10.8611C25.5106 16.0381 21.3141 20.2346 16.1371 20.2346C10.9601 20.2346 6.7637 16.0381 6.7637 10.8611Z" fill="#F5A922"/>
<path d="M16.1369 17.8912C12.2543 17.8912 9.10684 14.7438 9.10684 10.8612C9.10684 6.97856 12.2543 3.83109 16.1369 3.83109C20.0195 3.83109 23.167 6.97856 23.167 10.8612C23.167 14.7438 20.0195 17.8912 16.1369 17.8912Z" fill="#E3E4E2"/>
<path d="M1.54995 22.7846L6.07631 18.2582C5.9519 18.0688 5.9729 17.8119 6.13945 17.6454C6.30596 17.4789 6.56299 17.4578 6.75234 17.5822L7.9602 16.3744C7.05742 15.0342 6.48911 13.4819 6.32471 11.8629C6.09956 9.6455 6.63574 7.3978 7.83447 5.53368C7.98037 5.30688 8.28242 5.2413 8.50918 5.3871C8.73594 5.53295 8.80156 5.83505 8.65576 6.06181C6.41401 9.54775 6.91748 14.2085 9.85288 17.1439C13.3172 20.6082 18.9542 20.6082 22.4186 17.1439C25.8829 13.6796 25.8829 8.04267 22.4186 4.57826C19.48 1.63974 14.9677 1.11918 11.4454 3.3121C11.2166 3.45458 10.9155 3.38461 10.7729 3.15571C10.6304 2.92685 10.7005 2.62577 10.9293 2.48324C12.7881 1.32602 15.0172 0.81967 17.2063 1.05732C19.4288 1.29867 21.525 2.30395 23.109 3.88783C26.9541 7.7329 26.9541 13.9893 23.109 17.8343C21.1865 19.7569 18.6611 20.7181 16.1357 20.7181C14.2118 20.7181 12.2882 20.1595 10.6308 19.0437L9.429 20.2455C9.60957 20.4368 9.60669 20.7381 9.41948 20.9254C9.32412 21.0207 9.19922 21.0684 9.07427 21.0684C8.95376 21.0684 8.83354 21.0236 8.7396 20.9349L4.21992 25.4546C3.85615 25.8184 3.37793 25.9999 2.89839 25.9999C2.41445 25.9999 1.92915 25.8148 1.55937 25.4451C0.823339 24.709 0.819042 23.5155 1.54995 22.7846ZM8.33423 17.3812L7.44995 18.2655L8.73911 19.5546L9.62339 18.6704L8.33423 17.3812ZM2.24985 24.7547C2.60532 25.1101 3.17934 25.1144 3.52949 24.7642L8.04868 20.245L6.75952 18.9558L2.24038 23.475C1.89018 23.8252 1.89443 24.3993 2.24985 24.7547Z" fill="black"/>
<path d="M9.84254 4.58994C9.74718 4.6853 9.62228 4.73295 9.49733 4.73295C9.37237 4.73295 9.24742 4.6853 9.15211 4.58994C8.96149 4.39931 8.96149 4.09018 9.15211 3.89946L9.16271 3.88886C9.35275 3.69765 9.66188 3.69672 9.85314 3.88676C10.0444 4.0768 10.0453 4.38593 9.85523 4.57719L9.84254 4.58994Z" fill="black"/>
<path d="M16.1371 3.3428C20.2827 3.3428 23.6554 6.71551 23.6554 10.8611C23.6554 15.0067 20.2827 18.3794 16.1371 18.3794C11.9915 18.3794 8.61877 15.0067 8.61877 10.8611C8.61877 6.71551 11.9915 3.3428 16.1371 3.3428ZM16.1371 17.403C19.7443 17.403 22.679 14.4683 22.679 10.8611C22.679 7.25389 19.7443 4.31922 16.1371 4.31922C12.5299 4.31922 9.59519 7.25389 9.59519 10.8611C9.59519 14.4683 12.5299 17.403 16.1371 17.403Z" fill="black"/>
<path d="M3.99997 3.6C4.2209 3.6 4.39998 3.37913 4.39998 3.10665V2.49335C4.39998 2.22087 4.2209 2 3.99997 2C3.77905 2 3.59998 2.22087 3.59998 2.49335V3.1066C3.59994 3.37908 3.77901 3.6 3.99997 3.6Z" fill="black"/>
<path d="M3.99997 5.99999C4.2209 5.99999 4.39998 5.77912 4.39998 5.50663V4.89336C4.39998 4.62087 4.2209 4.39999 3.99997 4.39999C3.77905 4.39999 3.59998 4.62087 3.59998 4.89336V5.50663C3.59994 5.77912 3.77901 5.99999 3.99997 5.99999Z" fill="black"/>
<path d="M4.89339 4.40001H5.50666C5.77915 4.40001 6.00002 4.22093 6.00002 4.00001C6.00002 3.77908 5.77915 3.60001 5.50666 3.60001H4.89339C4.6209 3.60001 4.40002 3.77908 4.40002 4.00001C4.40002 4.22093 4.6209 4.40001 4.89339 4.40001Z" fill="black"/>
<path d="M2.49336 4.40001H3.10664C3.37913 4.40001 3.6 4.22093 3.6 4.00001C3.6 3.77908 3.37913 3.60001 3.10664 3.60001H2.49336C2.22087 3.60001 2 3.77908 2 4.00001C2 4.22093 2.22087 4.40001 2.49336 4.40001Z" fill="black"/>
<path d="M22 22.6C22.2209 22.6 22.4 22.3791 22.4 22.1067V21.4933C22.4 21.2209 22.2209 21 22 21C21.7791 21 21.6 21.2209 21.6 21.4933V22.1066C21.5999 22.3791 21.779 22.6 22 22.6Z" fill="black"/>
<path d="M22 25C22.2209 25 22.4 24.7791 22.4 24.5066V23.8934C22.4 23.6209 22.2209 23.4 22 23.4C21.7791 23.4 21.6 23.6209 21.6 23.8934V24.5066C21.5999 24.7791 21.779 25 22 25Z" fill="black"/>
<path d="M22.8934 23.4H23.5067C23.7792 23.4 24 23.2209 24 23C24 22.7791 23.7792 22.6 23.5067 22.6H22.8934C22.6209 22.6 22.4 22.7791 22.4 23C22.4 23.2209 22.6209 23.4 22.8934 23.4Z" fill="black"/>
<path d="M20.4934 23.4H21.1066C21.3791 23.4 21.6 23.2209 21.6 23C21.6 22.7791 21.3791 22.6 21.1066 22.6H20.4934C20.2209 22.6 20 22.7791 20 23C20 23.2209 20.2209 23.4 20.4934 23.4Z" fill="black"/>
</svg>
