<svg width="56" height="52" viewBox="0 0 56 52" fill="none" xmlns="http://www.w3.org/2000/svg">
<circle cx="28" cy="26" r="26" fill="#EDEDED"/>
<path d="M42.8668 37.1335H47.2668V29.0667L40.6668 18.8H32.6001V37.1335H35.5334" fill="#FDB62F"/>
<path d="M10.6001 37.1334H4.7334V13.6667H32.6002V37.1334H17.9334" fill="#FDB62F"/>
<path d="M9.13341 33.4667H4.7334V34.9334H9.13341V33.4667Z" fill="#F46B27"/>
<path d="M32.6002 33.4667H19.4001V34.9334H32.6002V33.4667Z" fill="#F46B27"/>
<path d="M47.2668 33.4667H44.3335V34.9334H47.2668V33.4667Z" fill="#DBDBDB"/>
<path d="M32.6001 15.8667H6.93335V17.3334H32.6001V15.8667Z" fill="#F46B27"/>
<path d="M14.2667 40.8001C16.2917 40.8001 17.9334 39.1585 17.9334 37.1334C17.9334 35.1084 16.2917 33.4667 14.2667 33.4667C12.2416 33.4667 10.6 35.1084 10.6 37.1334C10.6 39.1585 12.2416 40.8001 14.2667 40.8001Z" fill="#126099"/>
<path d="M39.2 40.8001C41.2251 40.8001 42.8667 39.1585 42.8667 37.1334C42.8667 35.1084 41.2251 33.4667 39.2 33.4667C37.175 33.4667 35.5333 35.1084 35.5333 37.1334C35.5333 39.1585 37.175 40.8001 39.2 40.8001Z" fill="#126099"/>
<path d="M15 36.4001H13.5333V37.8668H15V36.4001Z" fill="#DBDBDB"/>
<path d="M39.9335 36.4001H38.4668V37.8668H39.9335V36.4001Z" fill="#DBDBDB"/>
<path d="M17.2001 10H6.93335V11.4667H17.2001V10Z" fill="#DBDBDB"/>
<path d="M5.4667 10H4V11.4667H5.4667V10Z" fill="#DBDBDB"/>
<path d="M42.5513 21.7334H35.5333V28.3334H46.7974L42.5513 21.7334Z" fill="#87CED9"/>
<path d="M34.0668 18.8H32.6001V37.1334H34.0668V18.8Z" fill="#FFA83D"/>
<path d="M46.7974 28.3334L42.8153 22.1367C40.8581 24.4592 38.3566 26.2603 35.5333 27.38V28.3333H46.7974V28.3334Z" fill="#6CBBC7"/>
<path d="M41.2828 18.404C41.1478 18.1942 40.9161 18.0674 40.6668 18.0667H33.3335V13.6667C33.3335 13.2619 33.0049 12.9334 32.6001 12.9334H4.73331C4.32854 12.9334 4 13.2619 4 13.6667V37.1334C4 37.5382 4.32854 37.8667 4.73331 37.8667H9.93262C10.3521 40.2604 12.632 41.8605 15.0256 41.4417C16.8509 41.122 18.2809 39.6927 18.6006 37.8667H34.866C35.2854 40.2604 37.5654 41.8605 39.959 41.4417C41.7842 41.122 43.2142 39.6927 43.534 37.8667H47.2667C47.6715 37.8667 48 37.5382 48 37.1334V29.0667C48 28.926 47.9589 28.7888 47.8827 28.6707L41.2828 18.404ZM42.1334 22.4667L45.4554 27.6H36.2668V22.4667H42.1334ZM14.2667 40.0667C12.6468 40.0667 11.3334 38.7534 11.3334 37.1334C11.3334 35.5135 12.6468 34.2001 14.2667 34.2001C15.8866 34.2001 17.2 35.5135 17.2 37.1334C17.2 38.7534 15.8866 40.0667 14.2667 40.0667ZM14.2667 32.7334C12.1209 32.7357 10.2906 34.2844 9.93271 36.4001H5.4667V34.9334H9.1334V33.4667H5.4667V14.4H31.8668V15.8667H6.93331V17.3334H31.8667V33.4667H19.4V34.9334H31.8668V36.4001H18.6007C18.2428 34.2851 16.4124 32.7356 14.2667 32.7334ZM39.2001 40.0667C37.5801 40.0667 36.2668 38.7534 36.2668 37.1334C36.2668 35.5135 37.5801 34.2001 39.2001 34.2001C40.82 34.2001 42.1334 35.5135 42.1334 37.1334C42.1334 38.7534 40.82 40.0667 39.2001 40.0667ZM43.5341 36.4C43.1146 34.0064 40.8347 32.4063 38.4411 32.825C36.6158 33.1448 35.1858 34.574 34.8661 36.4H33.3334V19.5334H40.2634L41.2094 21.0001H35.5334C35.1286 21.0001 34.8001 21.3286 34.8001 21.7334V28.3334C34.8001 28.7382 35.1286 29.0667 35.5334 29.0667H46.3941L46.5334 29.2794V33.4667H44.3334V34.9334H46.5334V36.4001H43.5341V36.4Z" fill="black"/>
<path d="M15 36.4H13.5333V37.8667H15V36.4Z" fill="black"/>
<path d="M39.9335 36.4H38.4668V37.8667H39.9335V36.4Z" fill="black"/>
<path d="M17.2001 10H6.93335V11.4667H17.2001V10Z" fill="black"/>
<path d="M5.4667 10H4V11.4667H5.4667V10Z" fill="black"/>
<path d="M50.8393 9.33929H46.8929C46.7647 9.33929 46.6607 9.23534 46.6607 9.10714V5.16071C46.6607 4.51971 46.141 4 45.5 4C44.859 4 44.3393 4.51971 44.3393 5.16071V9.10714C44.3393 9.23534 44.2353 9.33929 44.1071 9.33929H40.1607C39.5197 9.33929 39 9.859 39 10.5C39 11.141 39.5197 11.6607 40.1607 11.6607H44.1071C44.2353 11.6607 44.3393 11.7647 44.3393 11.8929V15.8393C44.3393 16.4803 44.859 17 45.5 17C46.141 17 46.6607 16.4803 46.6607 15.8393V11.8929C46.6607 11.7647 46.7647 11.6607 46.8929 11.6607H50.8393C51.4803 11.6607 52 11.141 52 10.5C52 9.859 51.4803 9.33929 50.8393 9.33929Z" fill="#FDB62F" stroke="black" stroke-width="0.8"/>
</svg>
